<?xml version="1.0" encoding="UTF-8" standalone="no"?>
<svg
   height="512pt"
   version="1.1"
   viewBox="0 0 512 512"
   width="512pt"
   id="svg154"
   sodipodi:docname="SEI.svg"
   inkscape:version="1.4.3 (0d15f75, 2025-12-25)"
   xmlns:inkscape="http://www.inkscape.org/namespaces/inkscape"
   xmlns:sodipodi="http://sodipodi.sourceforge.net/DTD/sodipodi-0.dtd"
   xmlns="http://www.w3.org/2000/svg"
   xmlns:svg="http://www.w3.org/2000/svg">
  <defs
     id="defs154">
    <rect
       x="145.65895"
       y="569.18138"
       width="243.93488"
       height="88.331334"
       id="rect200" />
    <rect
       x="177.24764"
       y="576.78606"
       width="314.13196"
       height="53.232791"
       id="rect198" />
    <rect
       x="162.62325"
       y="565.08655"
       width="379.06427"
       height="49.722936"
       id="rect197" />
    <rect
       x="223.46073"
       y="605.44987"
       width="226.97058"
       height="29.248786"
       id="rect196" />
    <rect
       x="124.59983"
       y="568.01143"
       width="177.24764"
       height="74.291917"
       id="rect195" />
    <rect
       x="201.23165"
       y="514.19366"
       width="296.58269"
       height="18.719223"
       id="rect194" />
    <rect
       x="281.06858"
       y="195.65186"
       width="17.579713"
       height="14.06377"
       id="rect172" />
  </defs>
  <sodipodi:namedview
     id="namedview154"
     pagecolor="#ffffff"
     bordercolor="#000000"
     borderopacity="0.25"
     inkscape:showpageshadow="2"
     inkscape:pageopacity="0.0"
     inkscape:pagecheckerboard="0"
     inkscape:deskcolor="#d1d1d1"
     inkscape:document-units="pt"
     inkscape:zoom="1.7094727"
     inkscape:cx="527.6481"
     inkscape:cy="391.64125"
     inkscape:window-width="2560"
     inkscape:window-height="1369"
     inkscape:window-x="2728"
     inkscape:window-y="-8"
     inkscape:window-maximized="1"
     inkscape:current-layer="svg154" />
  <rect
     style="fill:#bfe3ef;fill-opacity:1;stroke-width:0.798329"
     id="rect199"
     width="293.07281"
     height="106.1731"
     x="113.63152"
     y="107.4893"
     ry="1.0016329" />
  <path
     d="M 214.12 144.10 C 220.16 141.44 227.07 147.93 224.87 154.10 C 223.50 160.16 214.69 161.94 210.88 157.16 C 206.88 153.26 208.81 145.71 214.12 144.10 Z"
     fill="#030302"
     opacity="1.00"
     stroke="#030302"
     stroke-width="0.25"
     id="path2" />
  <path
     d="M 214.08 146.05 C 218.58 143.43 224.52 148.07 223.32 153.07 C 222.60 158.20 215.20 159.91 212.08 155.94 C 209.35 152.96 210.67 147.90 214.08 146.05 Z"
     fill="#f7e797"
     opacity="1.00"
     stroke="#f7e797"
     stroke-width="0.25"
     id="path3" />
  <path
     d="M 373.97 155.10 C 372.10 150.87 377.28 146.52 381.22 148.75 C 384.78 150.13 384.31 154.78 382.56 157.44 C 379.63 159.00 375.14 158.69 373.97 155.10 Z"
     fill="#050505"
     opacity="1.00"
     stroke="#050505"
     stroke-width="0.25"
     id="path4" />
  <path
     d="M 375.68 152.05 C 377.10 148.79 381.12 150.00 382.58 152.57 C 382.32 153.38 381.79 155.00 381.53 155.81 C 378.80 157.80 374.33 155.68 375.68 152.05 Z"
     fill="#9e97c5"
     opacity="1.00"
     stroke="#9e97c5"
     stroke-width="0.25"
     id="path5" />
  <path
     d="M 386.13 152.03 C 387.90 152.16 389.98 151.74 391.22 153.35 C 389.55 153.55 387.87 153.67 386.20 153.79 C 386.18 153.35 386.15 152.47 386.13 152.03 Z"
     fill="#181818"
     opacity="1.00"
     stroke="#181818"
     stroke-width="0.25"
     id="path8" />
  <path
     id="path15"
     style="display:inline"
     d="m 390.00439,189.5625 c -0.002,0.007 -0.005,0.0125 -0.007,0.019 0.005,-0.004 0.0103,-0.009 0.0161,-0.0132 z m -0.0981,0.26514 c -0.008,0.0228 -0.0165,0.0461 -0.0249,0.0688 0.0208,0.001 0.0419,0.003 0.0645,0.007 -0.019,-0.0237 -0.0319,-0.0491 -0.0396,-0.0762 z m -0.53027,0.92285 c -18.764,-0.85529 -37.2775,2.90519 -55.37549,7.42969 -2.25,-0.77 -4.6801,-2.12971 -7.1001,-1.19971 -2.42,0.52 -3.86006,2.65898 -5.31006,4.45898 -10.52,2.55 -20.99992,5.31061 -31.66992,7.12061 -1.94,-0.79 -3.67994,-2.56996 -5.93994,-1.95996 -2.2,0.11 -3.32076,2.30031 -4.53076,3.82031 -6.74,0.49 -13.44924,1.43016 -20.21924,1.16016 -1.07,-3.51 -4.22994,-6.79114 -8.18994,-6.16114 -3.53,0.04 -5.63084,3.22084 -7.36084,5.86084 -17.15,-2.03 -33.99946,-5.97033 -50.68946,-10.34033 -14.46,-3.62 -29.07982,-7.37045 -44.06982,-7.46045 -12.05,-0.33 -24.09057,1.99049 -35.33057,6.25049 0.23,24.44 -0.20982,48.90033 0.18018,73.34033 1.89,-2.29 1.60967,-5.33008 1.65967,-8.08008 -0.07,-10.68 -0.0992,-21.37078 0.0308,-32.05078 v -0.41015 c 18.23,-5.78 37.6492,-8.64991 56.6792,-5.64991 25.15,3.24 48.53049,14.3109 73.75049,17.1709 19.03,2.21 38.16943,-0.49045 56.91943,-3.71045 18.44,-3.08 36.62061,-7.58937 55.12061,-10.35937 2.22,-0.36 4.44962,-0.76014 6.61962,-1.39014 -0.17,-0.23 -0.49943,-0.68992 -0.66943,-0.91992 -3.61,-0.28 -7.15017,0.58016 -10.68017,1.16016 -18.06,3.15 -35.94077,7.29906 -54.03077,10.28906 -16.92,2.75 -34.13882,5.12984 -51.29882,3.33984 -17.77,-1.69 -34.63051,-7.8692 -51.77051,-12.4292 -14.36,-3.91 -29.18059,-6.49056 -44.10059,-6.08056 -12.49,0.42 -24.83943,2.93967 -36.66943,6.90967 0.03,-0.84 0.10062,-2.49959 0.14062,-3.32959 0.14,-8.62 -0.18058,-17.24915 0.14942,-25.86915 l 0.0893,-0.85107 c 11.57,-4.16 23.93119,-6.06953 36.22119,-5.51953 0.55,3.51 1.11004,7.01 1.79004,10.5 -1.5,-1.03 -3.00017,-2.08932 -4.68017,-2.79932 1.44,2.55 3.05918,5.03889 5.15918,7.10889 2.86,-1.5 3.81996,-5.01908 4.95996,-7.80908 -1.43,1.22 -2.72024,2.58972 -3.99024,3.96972 -0.26,-3.69 -0.80884,-7.3397 -1.56884,-10.9497 14.75,1.24 29.18873,4.71908 43.44873,8.55908 15.39,3.92 30.92093,7.37068 46.71093,9.20068 0.79,3.98 3.7,8.12967 8.25,7.65967 4.19,0.18 6.42024,-3.87021 7.74024,-7.22021 6.67,-0.12 13.319,-0.74946 19.979,-1.18946 0.37,1.18 0.7599,2.35028 1.1499,3.53028 -1.93,2.39 -3.85923,4.8091 -5.21923,7.5791 3.42,-0.97 4.94004,-4.41897 7.04004,-6.93897 0.77,0.22 2.3091,0.66916 3.0791,0.88916 1.58,4.15 1.86115,9.10061 5.18115,12.37061 -0.42,-4.41 -2.31053,-8.46065 -3.54053,-12.66065 1.8,-1.87 2.72998,-4.26929 3.22998,-6.77929 10.15,-1.98 20.25074,-4.21108 30.26074,-6.85108 0.71,2.47 1.19952,5.39094 3.49952,6.96094 3.56,2.84 9.48966,1.54914 11.40966,-2.63086 1.54,-2.6 0.33075,-5.50937 -0.48925,-8.10937 17.52,-4.14 35.33947,-8.07061 53.45947,-7.12061 -0.0198,0.0774 -0.0403,0.15546 -0.0601,0.23291 0.0429,-0.0987 0.11083,-0.183 0.22412,-0.22998 0.0447,-0.019 0.0961,-0.0188 0.14356,-0.0278 0.11387,0.006 0.22678,0.0216 0.3413,0.0146 0.12635,0.001 0.25161,0.001 0.37793,0.004 0.1272,0.004 0.25482,0.009 0.38086,0.0278 0.16217,0.0287 0.33609,0.0801 0.40137,0.24756 0.0137,-0.05 0.0273,-0.0994 0.041,-0.14941 4.68,0.52 9.36951,0.98959 13.99951,1.82959 0.05,10.66 -0.03,21.31021 0,31.97021 -13.39,-2.01 -27.00963,-1.19896 -40.36963,0.56104 0.4,0.36 1.22037,1.07994 1.63037,1.43994 12.25,-1.12 24.67992,-2.31111 36.91992,-0.39111 l 1.75928,0.28125 c 0.02,12.53 -0.0997,25.0591 0.0703,37.5791 0.01,0.63 0.0401,1.89978 0.0601,2.52978 l 1.43994,-1.70947 c 0.52,-1.16 0.1903,-2.54051 0.3003,-3.77051 -0.12,-23.2 -0.0197,-46.39937 0.0102,-69.60937 -4.89,-1.39 -9.97981,-1.98 -15.04981,-2.25 0.0179,-0.0476 0.0363,-0.0957 0.0542,-0.14356 -0.12187,-0.0227 -0.24595,-0.0374 -0.36914,-0.0513 -0.19098,-0.0137 -0.38095,-0.0338 -0.57129,-0.0542 -0.16503,-0.0159 -0.3307,-0.0253 -0.49511,-0.0469 -0.168,-0.0194 -0.33605,-0.0377 -0.50391,-0.0586 -0.0562,-0.007 -0.10628,-0.019 -0.14941,-0.0351 z m -0.30469,2.33203 c 0.015,0.013 0.0357,0.0106 0.0571,0.003 -0.0191,-0.001 -0.038,-0.002 -0.0571,-0.003 z m 0.14062,0.009 c -0.005,0.0354 -0.0108,0.0715 -0.0161,0.10693 -0.004,0.0661 -0.0106,0.13223 -0.019,0.19776 0.0135,-0.0716 0.0235,-0.14402 0.0293,-0.2168 0.002,-0.0311 0.006,-0.0607 0.0117,-0.0879 h -0.001 z m 1.26709,0.17724 c -0.009,0.0196 -0.0142,0.0402 -0.0176,0.063 0.006,-0.0213 0.0118,-0.0416 0.0176,-0.063 z m -0.41894,1.56299 c -0.009,0.003 -0.0196,0.004 -0.0308,0.004 -0.0141,0.0161 -0.0284,0.0322 -0.0425,0.0483 -0.005,0.005 -0.0103,0.009 -0.0147,0.0132 0.0154,0.0485 0.0262,0.0977 0.0322,0.14795 0.0189,-0.0707 0.0367,-0.14301 0.0557,-0.21387 z m -0.58594,0.94043 c -0.002,0.003 -0.004,0.005 -0.006,0.007 -6.4e-4,0.019 0.001,0.037 0.001,0.0454 0.007,-0.0153 0.0126,-0.0357 0.006,-0.0498 v -0.001 z m -1.59375,0.4043 c -0.0384,0.15564 -0.0776,0.31162 -0.11572,0.46728 0.0223,-0.0179 0.0463,-0.0319 0.0703,-0.041 0.0147,-0.0411 0.028,-0.0827 0.041,-0.12451 0.0165,-0.0617 0.0336,-0.12317 0.0513,-0.18457 -0.0174,-0.0379 -0.0326,-0.077 -0.0469,-0.11719 z m 1.58496,0.95654 c -0.0204,0.01 -0.0398,0.0208 -0.0586,0.0308 0.0134,0.12362 -0.0435,0.2592 -0.0776,0.38086 -0.0399,0.16388 -0.0752,0.32944 -0.10693,0.49512 -0.034,0.14415 -0.0641,0.28784 -0.0894,0.43359 0.10979,-0.44753 0.21974,-0.89363 0.33252,-1.34033 z m -1.96728,0.61524 c -0.0135,0.0559 -0.0276,0.11085 -0.041,0.16699 9.9e-4,-0.001 0.002,-0.002 0.003,-0.003 l 0.003,-0.003 h 0.001 v -0.001 c 0.0111,-0.0538 0.0229,-0.10597 0.0337,-0.15966 z m -0.13916,0.58008 c -0.0356,0.14991 -0.0716,0.2997 -0.10694,0.4497 0.004,-0.0144 0.009,-0.0282 0.0132,-0.0425 0.0349,-0.12843 0.0705,-0.2562 0.104,-0.38525 -0.004,-0.007 -0.007,-0.0145 -0.0103,-0.022 z m -0.18164,0.77783 c -0.18719,0.8009 -0.37106,1.60022 -0.54786,2.40381 -2.37,0.78 -5.07873,1.28035 -6.69873,3.36035 -3.3,3.76 -1.66058,10.51916 3.14942,12.13916 4.74,2.27 11.04998,-1.63877 10.72998,-6.98877 0.36501,-3.6896 -2.66642,-6.17234 -5.37891,-8.02442 -0.11089,0.0252 -0.21804,-0.006 -0.32226,-0.0688 -0.0863,-0.0372 -0.16741,-0.0803 -0.26221,-0.0937 -0.16361,-0.0412 -0.33198,-0.0658 -0.48926,-0.13037 -0.0829,-0.0311 -0.16609,-0.0748 -0.25049,-0.10108 -0.0263,-0.008 -0.0533,-0.012 -0.0791,-0.022 -0.0327,-0.0121 -0.0633,-0.0283 -0.0952,-0.0425 -0.0297,-0.0233 -0.0648,-0.0402 -0.0894,-0.0688 -0.1206,-0.14052 -0.12308,-0.30928 -0.0571,-0.47314 0.0382,-0.0927 0.0841,-0.18252 0.11426,-0.27832 0.0369,-0.0958 0.074,-0.18728 0.082,-0.29151 0.0223,-0.13147 0.0328,-0.26569 0.0571,-0.39697 0.0164,-0.18413 0.0394,-0.36749 0.0732,-0.54932 0.0205,-0.12566 0.0405,-0.24849 0.0645,-0.37353 z m 0.16259,1.99072 c -8e-4,0.002 -0.002,0.004 -0.003,0.006 0.006,0.003 0.0138,0.005 0.0205,0.007 -0.006,-0.004 -0.0119,-0.009 -0.0176,-0.0132 z m 0.3794,0.14648 c 0.0855,0.0217 0.17209,0.038 0.25781,0.0586 0.0747,0.0126 0.14478,0.0363 0.21387,0.0644 -6.5e-4,-0.0244 -0.003,-0.0475 -0.004,-0.0718 -0.09,-0.0101 -0.1784,-0.0237 -0.26806,-0.0366 -0.0664,-0.004 -0.13326,-0.006 -0.19922,-0.0147 z" />
  <path
     d="M 194.14 173.14 C 197.83 170.75 202.93 174.72 201.79 178.86 C 201.19 182.86 195.40 184.13 192.91 181.13 C 190.65 178.89 191.33 174.57 194.14 173.14 Z"
     fill="#050505"
     opacity="1.00"
     stroke="#050505"
     stroke-width="0.25"
     id="path22" />
  <path
     d="M 194.27 175.41 C 195.74 173.69 198.98 173.85 199.78 176.14 C 201.21 178.53 198.63 181.64 195.99 180.92 C 193.51 180.62 192.32 176.92 194.27 175.41 Z"
     fill="#9e97c5"
     opacity="1.00"
     stroke="#9e97c5"
     stroke-width="0.25"
     id="path24" />
  <path
     d="M 335.33 199.68 C 352.85 195.54 370.67 191.61 388.79 192.56 C 388.03 195.53 387.29 198.51 386.63 201.51 C 384.26 202.29 381.55 202.79 379.93 204.87 C 376.63 208.63 378.27 215.39 383.08 217.01 C 387.82 219.28 394.13 215.37 393.81 210.02 C 394.18 206.28 391.06 203.78 388.32 201.92 C 389.02 198.82 389.80 195.74 390.64 192.68 C 395.32 193.20 400.01 193.67 404.64 194.51 C 404.69 205.17 404.61 215.82 404.64 226.48 C 391.25 224.47 377.63 225.28 364.27 227.04 C 364.67 227.40 365.49 228.12 365.90 228.48 C 365.56 228.51 364.89 228.56 364.55 228.59 C 364.38 228.36 364.05 227.90 363.88 227.67 C 360.27 227.39 356.73 228.25 353.20 228.83 C 335.14 231.98 317.26 236.13 299.17 239.12 C 282.25 241.87 265.03 244.25 247.87 242.46 C 230.10 240.77 213.24 234.59 196.10 230.03 C 181.74 226.12 166.92 223.54 152.00 223.95 C 139.51 224.37 127.16 226.89 115.33 230.86 C 115.36 230.02 115.43 228.36 115.47 227.53 C 115.93 227.29 116.86 226.80 117.32 226.56 C 116.77 218.36 116.92 210.13 117.34 201.92 C 116.91 201.86 116.05 201.73 115.62 201.66 L 115.71 200.81 C 127.28 196.65 139.64 194.74 151.93 195.29 C 152.48 198.80 153.04 202.30 153.72 205.79 C 152.22 204.76 150.72 203.70 149.04 202.99 C 150.48 205.54 152.10 208.03 154.20 210.10 C 157.06 208.60 158.02 205.08 159.16 202.29 C 157.73 203.51 156.44 204.88 155.17 206.26 C 154.91 202.57 154.36 198.92 153.60 195.31 C 168.35 196.55 182.79 200.03 197.05 203.87 C 212.44 207.79 227.97 211.24 243.76 213.07 C 244.55 217.05 247.46 221.20 252.01 220.73 C 256.20 220.91 258.43 216.86 259.75 213.51 C 266.42 213.39 273.07 212.76 279.73 212.32 C 280.10 213.50 280.49 214.67 280.88 215.85 C 278.95 218.24 277.02 220.66 275.66 223.43 C 279.08 222.46 280.60 219.01 282.70 216.49 C 283.47 216.71 285.01 217.16 285.78 217.38 C 287.36 221.53 287.64 226.48 290.96 229.75 C 290.54 225.34 288.65 221.29 287.42 217.09 C 289.22 215.22 290.15 212.82 290.65 210.31 C 300.80 208.33 310.90 206.10 320.91 203.46 C 321.62 205.93 322.11 208.85 324.41 210.42 C 327.97 213.26 333.90 211.97 335.82 207.79 C 337.36 205.19 336.15 202.28 335.33 199.68 Z"
     fill="#c6dea0"
     opacity="1.00"
     stroke="#c6dea0"
     stroke-width="0.25"
     id="path25" />
  <path
     d="M 328.40 198.51 C 333.08 197.99 336.69 203.70 333.80 207.56 C 331.34 211.62 324.54 210.63 323.41 206.04 C 322.24 202.53 324.80 198.86 328.40 198.51 Z"
     fill="#fae992"
     opacity="1.00"
     stroke="#fae992"
     stroke-width="0.25"
     id="path26" />
  <path
     d="M 128.52 201.70 C 133.13 198.74 139.68 202.50 139.80 207.86 C 140.58 213.44 133.85 217.93 128.96 215.26 C 123.53 212.90 123.20 204.42 128.52 201.70 Z"
     fill="#031000"
     opacity="1.00"
     stroke="#031000"
     stroke-width="0.25"
     id="path27" />
  <path
     d="M 115.62 201.66 C 116.05 201.73 116.91 201.86 117.34 201.92 C 116.92 210.13 116.77 218.36 117.32 226.56 C 116.86 226.80 115.93 227.29 115.47 227.53 C 115.61 218.91 115.29 210.28 115.62 201.66 Z"
     fill="#d7e9bd"
     opacity="1.00"
     stroke="#d7e9bd"
     stroke-width="0.25"
     id="path28" />
  <path
     d="M 358.29 202.30 C 363.07 200.33 368.35 205.79 366.40 210.53 C 365.03 215.06 358.48 215.99 355.51 212.51 C 352.43 209.34 354.19 203.63 358.29 202.30 Z"
     fill="#000c00"
     opacity="1.00"
     stroke="#000c00"
     stroke-width="0.25"
     id="path29" />
  <path
     d="M 127.76 204.82 C 130.57 200.51 137.83 202.91 137.95 207.91 C 138.47 211.59 135.18 213.80 132.02 214.47 C 127.73 213.73 124.77 208.50 127.76 204.82 Z"
     fill="#dceac8"
     opacity="1.00"
     stroke="#dceac8"
     stroke-width="0.25"
     id="path30" />
  <path
     d="M 131.22 204.18 C 134.36 203.58 136.89 207.04 136.34 209.96 C 135.34 212.97 130.88 213.34 129.00 211.01 C 126.78 208.97 128.40 204.72 131.22 204.18 Z"
     fill="#f8eb96"
     opacity="1.00"
     stroke="#f8eb96"
     stroke-width="0.25"
     id="path31" />
  <path
     d="M 358.31 204.40 C 360.69 203.49 364.05 204.15 364.63 206.99 C 365.93 210.33 362.35 213.71 359.07 212.66 C 355.41 211.83 354.97 205.80 358.31 204.40 Z"
     fill="#dceac8"
     opacity="1.00"
     stroke="#dceac8"
     stroke-width="0.25"
     id="path32" />
  <path
     d="M 384.07 204.16 C 387.67 202.57 392.47 205.94 391.89 209.96 C 392.40 215.06 385.23 217.80 381.90 214.19 C 378.58 211.38 379.91 205.38 384.07 204.16 Z"
     fill="#a59fc7"
     opacity="1.00"
     stroke="#a59fc7"
     stroke-width="0.25"
     id="path33" />
  <path
     d="M 358.00 206.05 C 359.51 205.23 362.26 205.29 363.02 207.11 C 364.50 209.29 361.40 212.53 359.18 211.02 C 357.24 210.18 357.36 207.70 358.00 206.05 Z"
     fill="#c7e39b"
     opacity="1.00"
     stroke="#c7e39b"
     stroke-width="0.25"
     id="path34" />
  <path
     d="M 250.63 207.32 C 254.87 206.13 258.66 211.05 257.11 214.98 C 256.20 218.66 251.22 220.12 248.32 217.82 C 246.66 216.72 246.20 214.66 245.47 212.95 C 246.52 210.59 247.73 207.76 250.63 207.32 Z"
     fill="#c6dcb3"
     opacity="1.00"
     stroke="#c6dcb3"
     stroke-width="0.25"
     id="path35" />
  <path
     d="M 283.47 208.60 C 286.14 207.04 289.58 210.16 288.24 212.99 C 287.49 215.95 283.05 216.05 281.69 213.53 C 280.82 211.71 281.62 209.43 283.47 208.60 Z"
     fill="#cfe1b0"
     opacity="1.00"
     stroke="#cfe1b0"
     stroke-width="0.25"
     id="path36" />
  <path
     d="M 162.42 210.09 C 163.40 209.80 164.39 209.60 165.39 209.38 C 165.98 212.33 166.01 215.36 165.89 218.36 C 162.03 218.47 158.15 218.55 154.30 218.11 C 154.56 217.68 155.08 216.83 155.33 216.41 C 158.31 216.46 161.28 216.49 164.26 216.49 C 164.22 215.05 164.18 213.60 164.14 212.16 C 163.55 211.48 162.97 210.79 162.42 210.09 Z"
     fill="#031000"
     opacity="1.00"
     stroke="#031000"
     stroke-width="0.25"
     id="path37" />
  <path
     d="M 340.22 211.33 C 344.22 208.66 349.97 213.53 347.60 217.81 C 346.32 221.22 341.16 221.94 338.98 219.04 C 336.90 216.82 337.58 212.77 340.22 211.33 Z"
     fill="#031000"
     opacity="1.00"
     stroke="#031000"
     stroke-width="0.25"
     id="path38" />
  <path
     d="M 184.20 219.82 C 183.14 214.99 188.49 210.36 193.00 212.92 C 197.35 214.54 194.98 221.39 199.96 222.18 C 203.67 222.72 204.76 218.47 205.65 215.79 C 208.91 220.47 202.47 225.93 197.89 223.42 C 193.57 222.07 195.60 216.02 191.73 214.35 C 189.76 213.64 188.02 214.87 186.59 216.07 C 186.06 217.51 186.49 220.20 184.20 219.82 Z"
     fill="#031000"
     opacity="1.00"
     stroke="#031000"
     stroke-width="0.25"
     id="path39" />
  <path
     d="M 301.21 218.43 C 302.50 215.77 304.65 212.86 308.00 213.31 C 311.85 213.33 314.27 217.38 313.35 220.92 C 312.64 223.34 314.51 225.71 316.96 225.82 C 320.14 226.07 321.07 222.30 323.34 220.83 C 324.26 226.65 315.95 230.08 312.52 225.43 C 309.80 222.61 313.64 217.33 309.43 215.58 C 306.81 214.02 304.10 216.33 303.23 218.79 C 302.73 218.70 301.72 218.52 301.21 218.43 Z"
     fill="#031000"
     opacity="1.00"
     stroke="#031000"
     stroke-width="0.25"
     id="path40" />
  <path
     d="M 340.48 213.41 C 343.32 209.93 348.59 215.48 345.13 218.20 C 342.30 221.19 337.42 216.15 340.48 213.41 Z"
     fill="#ccdaa7"
     opacity="1.00"
     stroke="#ccdaa7"
     stroke-width="0.25"
     id="path41" />
  <path
     d="M 229.44 219.65 C 234.75 217.33 241.07 222.50 239.84 228.15 C 239.35 233.97 231.27 236.77 227.12 232.76 C 222.64 229.28 224.17 221.48 229.44 219.65 Z"
     fill="#000900"
     opacity="1.00"
     stroke="#000900"
     stroke-width="0.25"
     id="path42" />
  <path
     d="M 295.21 220.17 C 298.64 220.06 302.07 220.15 305.49 220.37 C 305.54 223.81 305.55 227.25 305.55 230.68 C 302.11 230.85 298.66 230.86 295.22 230.75 C 295.09 227.22 295.08 223.69 295.21 220.17 Z"
     fill="#031000"
     opacity="1.00"
     stroke="#031000"
     stroke-width="0.25"
     id="path43" />
  <path
     d="M 227.90 222.99 C 229.39 220.84 232.35 220.78 234.62 221.51 C 236.99 222.33 237.64 224.99 238.58 227.02 C 237.66 229.97 235.52 233.22 231.98 232.83 C 227.14 232.98 224.52 226.30 227.90 222.99 Z"
     fill="#9f97c2"
     opacity="1.00"
     stroke="#9f97c2"
     stroke-width="0.25"
     id="path44" />
  <path
     d="M 296.81 221.88 C 299.14 221.88 301.47 221.87 303.80 221.86 C 303.75 224.21 303.73 226.56 303.74 228.91 C 301.39 228.89 299.05 228.89 296.71 228.92 C 296.78 226.57 296.81 224.22 296.81 221.88 Z"
     fill="#c5dca3"
     opacity="1.00"
     stroke="#c5dca3"
     stroke-width="0.25"
     id="path45" />
  <path
     d="M 267.29 224.23 C 271.55 221.77 277.52 225.05 277.54 230.00 C 278.04 234.85 272.53 239.06 268.05 236.80 C 262.60 235.11 262.14 226.59 267.29 224.23 Z"
     fill="#031000"
     opacity="1.00"
     stroke="#031000"
     stroke-width="0.25"
     id="path46" />
  <path
     d="M 115.46 232.53 C 133.69 226.75 153.11 223.88 172.14 226.88 C 197.29 230.12 220.67 241.19 245.89 244.05 C 264.92 246.26 284.06 243.56 302.81 240.34 C 321.25 237.26 339.43 232.75 357.93 229.98 C 360.15 229.62 362.38 229.22 364.55 228.59 C 364.89 228.56 365.56 228.51 365.90 228.48 C 378.15 227.36 390.58 226.17 402.82 228.09 C 403.18 240.44 403.20 252.79 402.98 265.14 C 389.49 262.34 375.67 263.61 362.01 263.34 C 357.39 263.13 352.85 264.15 348.58 265.84 C 345.89 266.44 343.19 266.97 340.47 267.38 C 333.31 266.33 326.51 269.12 319.62 270.50 C 306.18 273.29 292.63 275.92 278.89 276.65 C 272.58 277.05 266.28 276.33 259.96 276.35 C 253.90 276.33 248.03 274.63 242.04 273.98 C 235.66 273.29 229.48 271.45 223.08 270.94 C 204.48 268.07 185.85 264.35 166.94 264.80 C 157.22 265.07 147.37 264.05 137.79 266.11 C 138.12 263.21 138.41 260.32 138.64 257.42 C 142.09 256.41 145.97 255.04 147.44 251.41 C 150.86 245.45 145.78 237.18 138.98 237.31 C 132.58 236.79 127.16 243.89 129.28 249.94 C 130.27 253.52 133.56 255.67 136.81 257.00 C 136.54 260.63 136.16 264.26 135.82 267.89 C 128.98 268.12 122.38 269.94 115.86 271.86 C 115.19 258.90 115.96 245.91 115.46 232.94 L 115.46 232.53 Z"
     fill="#d0e6b8"
     opacity="1.00"
     stroke="#d0e6b8"
     stroke-width="0.25"
     id="path47" />
  <path
     d="M 267.39 226.50 C 270.55 223.43 276.24 226.75 275.59 230.92 C 275.41 234.02 271.94 236.45 269.00 235.14 C 265.40 234.07 264.33 228.77 267.39 226.50 Z"
     fill="#dceac8"
     opacity="1.00"
     stroke="#dceac8"
     stroke-width="0.25"
     id="path48" />
  <path
     d="M 267.29 229.22 C 268.13 227.84 269.89 227.36 271.13 226.42 C 272.67 228.07 275.71 230.07 273.40 232.44 C 272.33 234.77 269.84 233.48 267.94 233.26 C 267.70 231.92 267.25 230.59 267.29 229.22 Z"
     fill="#cae2a3"
     opacity="1.00"
     stroke="#cae2a3"
     stroke-width="0.25"
     id="path49" />
  <path
     d="M 402.82 228.09 C 403.26 228.16 404.14 228.30 404.58 228.37 C 404.60 240.90 404.48 253.43 404.65 265.95 C 404.23 265.75 403.39 265.34 402.98 265.14 C 403.20 252.79 403.18 240.44 402.82 228.09 Z"
     fill="#e2f0d1"
     opacity="1.00"
     stroke="#e2f0d1"
     stroke-width="0.25"
     id="path50" />
  <path
     d="M 115.46 232.94 C 115.96 245.91 115.19 258.90 115.86 271.86 C 122.38 269.94 128.98 268.12 135.82 267.89 C 135.79 268.29 135.72 269.09 135.68 269.49 C 128.86 270.53 122.10 271.95 115.38 273.54 C 115.54 285.65 115.24 297.77 115.58 309.88 C 115.05 309.90 114.00 309.94 113.47 309.97 C 113.85 297.67 113.38 285.36 113.77 273.07 C 115.66 270.78 115.38 267.74 115.43 264.99 C 115.36 254.31 115.33 243.62 115.46 232.94 Z"
     fill="#6a9aad"
     opacity="1.00"
     stroke="#6a9aad"
     stroke-width="0.25"
     id="path51" />
  <path
     d="M 129.28 249.94 C 127.16 243.89 132.58 236.79 138.98 237.31 C 145.78 237.18 150.86 245.45 147.44 251.41 C 145.97 255.04 142.09 256.41 138.64 257.42 C 138.41 260.32 138.12 263.21 137.79 266.11 L 137.64 267.35 C 137.61 267.73 137.54 268.49 137.51 268.87 C 137.21 273.13 136.77 277.37 136.42 281.62 C 138.84 283.42 141.86 285.50 141.73 288.92 C 142.35 293.98 136.91 298.29 132.10 296.69 C 127.11 295.67 124.97 288.98 127.96 285.02 C 129.40 282.68 132.24 282.15 134.65 281.35 C 134.92 277.39 135.34 273.44 135.68 269.49 C 135.72 269.09 135.79 268.29 135.82 267.89 C 136.16 264.26 136.54 260.63 136.81 257.00 C 133.56 255.67 130.27 253.52 129.28 249.94 Z"
     fill="#000a0b"
     opacity="1.00"
     stroke="#000a0b"
     stroke-width="0.25"
     id="path52" />
  <path
     d="M 345.47 238.46 C 350.14 234.21 357.99 238.12 357.98 244.30 C 363.28 245.56 368.52 247.08 373.90 248.00 C 376.11 246.09 378.81 244.45 379.55 241.40 C 380.08 239.24 382.11 238.31 383.93 237.44 C 386.75 238.17 388.65 240.33 389.54 243.03 C 388.73 244.86 387.69 246.61 386.06 247.83 C 383.14 249.90 383.42 255.38 378.94 255.36 C 375.45 255.84 373.87 252.45 373.12 249.68 C 367.98 248.62 362.89 247.37 357.78 246.19 C 356.21 249.48 353.00 252.41 349.08 251.52 C 343.07 250.75 340.53 242.15 345.47 238.46 Z"
     fill="#000c00"
     opacity="1.00"
     stroke="#000c00"
     stroke-width="0.25"
     id="path53" />
  <path
     d="M 136.40 239.48 C 142.80 237.05 149.07 244.94 145.72 250.76 C 143.34 256.45 134.53 256.40 131.81 251.04 C 129.07 246.84 131.75 240.84 136.40 239.48 Z"
     fill="#cbe3b3"
     opacity="1.00"
     stroke="#cbe3b3"
     stroke-width="0.25"
     id="path54" />
  <path
     d="M 166.13 245.25 C 165.79 240.13 172.63 237.12 176.18 240.77 C 179.00 243.14 177.15 246.91 177.52 249.98 C 178.37 251.56 180.04 252.88 181.94 252.55 C 184.42 252.51 185.26 249.81 186.84 248.34 C 188.48 250.26 186.18 252.42 184.65 253.50 C 181.31 255.85 176.18 253.49 175.64 249.51 C 175.23 247.17 176.97 244.60 175.41 242.52 C 174.35 240.88 171.92 240.77 170.29 241.46 C 168.86 242.68 167.63 244.11 166.13 245.25 Z"
     fill="#000900"
     opacity="1.00"
     stroke="#000900"
     stroke-width="0.25"
     id="path55" />
  <path
     d="M 347.40 239.28 C 350.76 236.92 356.25 239.82 355.92 244.00 C 356.36 248.37 350.74 251.30 347.26 248.85 C 343.79 246.83 343.87 241.20 347.40 239.28 Z"
     fill="#c9e0af"
     opacity="1.00"
     stroke="#c9e0af"
     stroke-width="0.25"
     id="path56" />
  <path
     d="M 379.15 246.23 C 380.73 243.83 381.28 240.69 383.96 239.15 C 385.28 240.20 387.15 241.02 387.35 242.94 C 387.32 244.69 385.61 245.56 384.55 246.69 C 382.43 248.48 382.19 251.68 379.97 253.38 C 376.80 254.66 374.60 251.01 375.65 248.28 C 376.82 247.62 378.10 247.08 379.15 246.23 Z"
     fill="#c0daad"
     opacity="1.00"
     stroke="#c0daad"
     stroke-width="0.25"
     id="path57" />
  <path
     d="M 324.38 254.50 C 328.29 251.31 334.72 254.95 333.89 259.97 C 333.99 264.77 327.29 267.34 323.95 264.10 C 320.83 261.76 321.32 256.67 324.38 254.50 Z"
     fill="#000900"
     opacity="1.00"
     stroke="#000900"
     stroke-width="0.25"
     id="path61" />
  <path
     d="M 326.35 255.44 C 329.59 253.88 333.38 257.77 331.99 261.01 C 331.07 264.32 325.93 264.75 324.34 261.76 C 322.66 259.68 323.87 256.23 326.35 255.44 Z"
     fill="#bddba8"
     opacity="1.00"
     stroke="#bddba8"
     stroke-width="0.25"
     id="path72" />
  <path
     d="M 348.58 265.84 C 352.85 264.15 357.39 263.13 362.01 263.34 C 375.67 263.61 389.49 262.34 402.98 265.14 C 403.39 265.34 404.23 265.75 404.65 265.95 C 404.66 266.58 404.69 267.85 404.71 268.48 C 404.48 282.29 404.86 296.11 404.48 309.92 C 323.67 309.65 242.86 309.86 162.06 309.78 C 146.57 309.84 131.07 309.71 115.58 309.88 C 115.24 297.77 115.54 285.65 115.38 273.54 C 122.10 271.95 128.86 270.53 135.68 269.49 C 135.34 273.44 134.92 277.39 134.65 281.35 C 132.24 282.15 129.40 282.68 127.96 285.02 C 124.97 288.98 127.11 295.67 132.10 296.69 C 136.91 298.29 142.35 293.98 141.73 288.92 C 141.86 285.50 138.84 283.42 136.42 281.62 C 136.77 277.37 137.21 273.13 137.51 268.87 C 148.64 268.25 159.79 266.85 170.94 268.04 C 207.26 268.95 242.52 280.99 278.99 279.75 C 310.21 278.97 339.77 266.30 371.01 265.77 C 382.11 264.98 393.04 267.52 404.09 267.90 C 401.32 266.35 398.24 265.48 395.09 265.17 C 379.64 263.27 363.98 263.84 348.58 265.84 Z"
     fill="#bfe3ef"
     opacity="1.00"
     stroke="#bfe3ef"
     stroke-width="0.25"
     id="path77"
     style="fill:#ff9955" />
  <path
     d="M 348.58 265.84 C 363.98 263.84 379.64 263.27 395.09 265.17 C 398.24 265.48 401.32 266.35 404.09 267.90 C 393.04 267.52 382.11 264.98 371.01 265.77 C 339.77 266.30 310.21 278.97 278.99 279.75 C 242.52 280.99 207.26 268.95 170.94 268.04 C 159.79 266.85 148.64 268.25 137.51 268.87 C 137.54 268.49 137.61 267.73 137.64 267.35 C 155.04 265.12 172.68 265.56 190.07 267.54 C 206.40 269.82 222.70 272.35 238.95 275.18 C 256.45 277.93 274.34 279.44 291.98 276.99 C 308.32 274.78 324.39 270.97 340.47 267.38 C 343.19 266.97 345.89 266.44 348.58 265.84 Z"
     fill="#6a9aad"
     opacity="1.00"
     stroke="#6a9aad"
     stroke-width="0.25"
     id="path78" />
  <path
     d="M 137.79 266.11 C 147.37 264.05 157.22 265.07 166.94 264.80 C 185.85 264.35 204.48 268.07 223.08 270.94 C 229.48 271.45 235.66 273.29 242.04 273.98 C 248.03 274.63 253.90 276.33 259.96 276.35 C 266.28 276.33 272.58 277.05 278.89 276.65 C 292.63 275.92 306.18 273.29 319.62 270.50 C 326.51 269.12 333.31 266.33 340.47 267.38 C 324.39 270.97 308.32 274.78 291.98 276.99 C 274.34 279.44 256.45 277.93 238.95 275.18 C 222.70 272.35 206.40 269.82 190.07 267.54 C 172.68 265.56 155.04 265.12 137.64 267.35 L 137.79 266.11 Z"
     fill="#bee3cc"
     opacity="1.00"
     stroke="#bee3cc"
     stroke-width="0.25"
     id="path79" />
  <path
     d="M 404.71 268.48 L 406.15 266.77 C 406.88 281.17 406.00 295.62 406.58 310.03 C 406.06 310.00 405.00 309.95 404.48 309.92 C 404.86 296.11 404.48 282.29 404.71 268.48 Z"
     fill="#6791a3"
     opacity="1.00"
     stroke="#6791a3"
     stroke-width="0.25"
     id="path80" />
  <path
     d="M 370.45 269.71 C 374.67 266.90 381.03 269.89 381.65 274.89 C 382.99 280.43 376.78 285.74 371.52 283.33 C 365.82 281.37 365.14 272.56 370.45 269.71 Z"
     fill="#000900"
     opacity="1.00"
     stroke="#000900"
     stroke-width="0.25"
     id="path81" />
  <path
     d="M 371.37 271.37 C 374.78 268.94 380.10 271.75 379.92 275.96 C 380.53 280.49 374.59 283.95 371.02 281.00 C 367.67 278.85 367.90 273.29 371.37 271.37 Z"
     fill="#f9e88c"
     opacity="1.00"
     stroke="#f9e88c"
     stroke-width="0.25"
     id="path82" />
  <path
     d="M 156.23 283.46 C 155.76 279.88 155.63 276.24 156.34 272.69 C 159.72 272.76 163.11 272.71 166.47 273.11 C 166.51 276.58 166.54 280.05 166.48 283.52 C 163.06 283.53 159.65 283.49 156.23 283.46 Z"
     fill="#00090f"
     opacity="1.00"
     stroke="#00090f"
     stroke-width="0.25"
     id="path83" />
  <path
     d="M 157.82 274.76 C 160.10 274.49 162.41 274.59 164.71 274.55 C 164.72 276.92 164.73 279.30 164.71 281.68 C 162.36 281.65 160.01 281.63 157.66 281.57 C 157.71 279.30 157.67 277.02 157.82 274.76 Z"
     fill="#c3e3e9"
     opacity="1.00"
     stroke="#c3e3e9"
     stroke-width="0.25"
     id="path84" />
  <path
     d="M 333.17 279.20 C 338.35 277.40 343.87 282.87 342.57 288.10 C 341.77 293.78 333.83 296.30 329.93 292.07 C 325.77 288.28 327.53 280.42 333.17 279.20 Z"
     fill="#000900"
     opacity="1.00"
     stroke="#000900"
     stroke-width="0.25"
     id="path85" />
  <path
     d="M 333.08 281.14 C 336.87 279.27 341.49 283.01 340.83 287.09 C 340.88 291.74 334.40 294.14 331.30 290.75 C 328.14 288.07 329.34 282.63 333.08 281.14 Z"
     fill="#dceac8"
     opacity="1.00"
     stroke="#dceac8"
     stroke-width="0.25"
     id="path86" />
  <path
     d="M 333.22 283.02 C 335.72 281.59 340.27 283.84 339.45 287.01 C 339.42 291.50 331.95 292.06 331.04 287.81 C 329.72 285.86 331.65 284.01 333.22 283.02 Z"
     fill="#fbe990"
     opacity="1.00"
     stroke="#fbe990"
     stroke-width="0.25"
     id="path87" />
  <path
     d="m 358.92889,204.467 c 2.5,-1.43 7.05,0.82 6.23,3.99 -0.03,4.49 -7.5,5.05 -8.41,0.8 -1.32,-1.95 0.61,-3.8 2.18,-4.79 z"
     fill="#fbe990"
     opacity="1"
     stroke="#fbe990"
     stroke-width="0.25"
     id="path87-9" />
  <path
     d="M 131.39 284.33 C 134.85 281.95 140.02 284.91 139.92 289.05 C 140.51 293.68 134.53 297.03 130.89 294.14 C 127.28 291.94 127.77 286.25 131.39 284.33 Z"
     fill="#e5e0a4"
     opacity="1.00"
     stroke="#e5e0a4"
     stroke-width="0.25"
     id="path88" />
  <path
     d="M 133.29 285.42 C 135.30 284.90 137.40 286.19 138.14 288.08 C 138.20 290.37 136.94 293.55 134.28 293.61 C 132.47 293.01 130.71 291.78 130.01 289.94 C 129.94 287.98 131.29 285.85 133.29 285.42 Z"
     fill="#fcee8c"
     opacity="1.00"
     stroke="#fcee8c"
     stroke-width="0.25"
     id="path89" />
  <path
     d="M 360.47 285.69 C 365.69 282.55 372.81 288.05 371.51 293.88 C 370.84 299.67 362.86 302.29 358.83 298.17 C 354.79 294.84 355.78 287.93 360.47 285.69 Z"
     fill="#00090f"
     opacity="1.00"
     stroke="#00090f"
     stroke-width="0.25"
     id="path90" />
  <path
     d="M 361.28 287.33 C 364.27 285.73 368.52 287.21 369.42 290.60 C 371.29 294.91 366.41 299.85 362.07 298.01 C 357.27 296.86 356.74 289.16 361.28 287.33 Z"
     fill="#9c97c6"
     opacity="1.00"
     stroke="#9c97c6"
     stroke-width="0.25"
     id="path94" />
  <path
     d="M 386.19 287.22 C 390.29 285.90 394.65 289.86 393.74 294.06 C 393.39 299.36 385.20 300.73 382.67 296.33 C 380.37 293.19 382.25 287.82 386.19 287.22 Z"
     fill="#000900"
     opacity="1.00"
     stroke="#000900"
     stroke-width="0.25"
     id="path95" />
  <path
     d="M 386.11 289.10 C 388.67 287.70 392.30 290.01 391.97 292.98 C 392.46 296.43 387.95 298.57 385.34 296.54 C 382.48 294.84 383.07 290.24 386.11 289.10 Z"
     fill="#c2dfac"
     opacity="1.00"
     stroke="#c2dfac"
     stroke-width="0.25"
     id="path96" />
  <path
     d="M 113.47 309.97 C 114.00 309.94 115.05 309.90 115.58 309.88 C 131.07 309.71 146.57 309.84 162.06 309.78 C 242.86 309.86 323.67 309.65 404.48 309.92 C 405.00 309.95 406.06 310.00 406.58 310.03 L 405.82 311.43 C 399.54 311.90 393.22 311.51 386.92 311.67 C 390.58 313.62 394.57 314.88 398.16 316.97 L 397.68 318.48 C 390.55 315.97 383.97 310.83 376.06 311.55 C 301.02 311.69 225.98 311.55 150.94 311.61 C 145.42 311.77 139.54 310.70 134.39 313.27 L 133.08 312.39 C 132.83 312.21 132.33 311.86 132.08 311.68 C 126.12 311.55 120.15 311.89 114.21 311.46 L 113.47 309.97 Z"
     fill="#000a0b"
     opacity="1.00"
     stroke="#000a0b"
     stroke-width="0.25"
     id="path113" />
  <path
     d="M 134.39 313.27 C 139.54 310.70 145.42 311.77 150.94 311.61 C 225.98 311.55 301.02 311.69 376.06 311.55 C 383.97 310.83 390.55 315.97 397.68 318.48 C 398.39 318.81 399.81 319.45 400.51 319.78 C 396.01 320.30 391.47 320.25 386.95 320.17 C 354.94 320.13 322.94 320.19 290.94 320.17 C 288.53 324.03 287.28 328.76 284.05 332.01 C 268.04 332.38 252.00 331.98 235.97 332.19 C 233.12 332.14 230.19 332.44 227.40 331.70 C 224.74 328.16 223.15 323.96 221.04 320.09 C 195.35 320.26 169.65 320.11 143.96 320.14 C 136.02 320.02 128.08 320.49 120.16 319.99 C 124.73 317.38 129.66 315.53 134.39 313.27 Z"
     fill="#9f9e9e"
     opacity="1.00"
     stroke="#9f9e9e"
     stroke-width="0.25"
     id="path114" />
  <path
     id="path115"
     d="m 133.06787,312.37646 c -6.7107,1.35462 -12.87168,4.34022 -19.42236,6.22559 -0.12,6.67009 -0.0208,13.34847 -0.0908,20.01856 -0.0223,0.004 -0.0448,0.007 -0.0674,0.0102 0.0219,0.0636 0.0379,0.12977 0.0483,0.19629 0.01,0.10291 0.01,0.20573 0.009,0.30908 -7e-5,0.0956 4.8e-4,0.19151 0,0.28711 -0.001,0.0796 -0.001,0.15917 -0.004,0.23877 -0.004,0.0878 -0.007,0.17581 -0.0249,0.26221 -0.0107,0.0444 -0.024,0.0875 -0.0425,0.12597 0.004,0.0414 0.009,0.0816 0.0117,0.12305 0.0277,1.8e-4 0.0544,0.001 0.082,0.001 0.06,20.78661 0.009,41.56446 0.0688,62.35108 97.61014,0.0396 195.22091,-0.0729 292.83106,0.0381 0.07,-27.94786 -0.0992,-55.90273 0.0908,-83.85058 -2.76029,-0.96645 -5.48982,-2.01312 -8.37012,-2.72608 l -0.48047,1.19678 c 0.71007,0.26142 2.13001,0.76837 2.83008,1.02979 -4.50046,0.41193 -9.04105,0.37248 -13.56152,0.30908 -32.01332,-0.0317 -64.01719,0.0159 -96.02051,0 -2.41025,3.05779 -3.66029,6.80483 -6.89063,9.37939 -16.01166,0.2931 -32.0533,-0.0243 -48.08496,0.14209 -2.8503,-0.0396 -5.78051,0.19802 -8.5708,-0.38818 -2.66027,-2.80429 -4.25013,-6.13058 -6.36035,-9.19629 -25.69267,0.1347 -51.39473,0.017 -77.0874,0.041 -7.94083,-0.095 -15.88142,0.27743 -23.80225,-0.11866 4.57048,-2.06757 9.50047,-3.53439 14.23096,-5.3247 z m 5.18115,29.05372 -0.004,0.003 c 0.11911,-0.009 0.23273,0.0394 0.34717,0.0688 0.12081,0.0335 0.2403,0.0682 0.36621,0.0762 0.22936,0.0245 0.45659,0.0593 0.68262,0.10546 0.32983,0.0672 0.65408,0.16285 0.96093,0.30323 0.17415,0.0812 0.24143,0.10894 0.41016,0.20654 0.27421,0.15869 0.53092,0.34921 0.76611,0.56103 0.35993,0.31807 0.73863,0.61146 1.13379,0.88477 0.52071,0.39255 1.03926,0.80451 1.44727,1.31689 0.19816,0.0359 0.40094,0.0819 0.51416,0.26368 0.0564,0.0906 0.056,0.20743 0.0835,0.31054 -0.004,0.008 -0.009,0.0246 -0.0117,0.044 0.0252,0.005 0.0448,0.0266 0.0674,0.0395 0.0352,0.0208 0.0817,0.0452 0.1333,0.0718 0.0787,-0.0349 0.15386,-0.0637 0.20801,-0.0747 0.11644,-0.0242 0.23733,-0.0135 0.35595,-0.0205 0.11036,0.0692 0.25406,0.10145 0.33106,0.20655 0.23623,0.32249 0.0193,0.67126 -0.12451,0.96093 -0.20266,0.37087 -0.41946,0.73533 -0.64014,1.09571 -0.0563,0.082 -0.10896,0.16639 -0.16846,0.24609 -0.37442,0.50143 -0.85125,0.91087 -1.39892,1.21289 -0.12635,0.0575 -0.25027,0.12195 -0.3794,0.17285 -0.12206,0.0481 -0.24805,0.0848 -0.37353,0.12305 -0.58654,0.17919 -1.18951,0.30397 -1.79444,0.40137 -0.11732,0.0202 -0.23146,0.039 -0.34424,0.0586 -0.0802,0.043 -0.15981,0.0863 -0.24023,0.12891 -0.0695,0.0369 -0.50219,0.26381 -0.59619,0.30761 -0.0746,0.0348 -0.15252,0.0635 -0.22852,0.0952 -0.0733,0.0141 -0.15912,0.0847 -0.21972,0.041 -0.0176,-0.0127 -0.0347,-0.025 -0.0527,-0.0381 -0.098,0.0876 -0.208,0.18182 -0.30615,0.24756 -0.05,0.0335 -0.10414,0.0588 -0.15674,0.0879 -0.0148,-0.016 -0.0313,-0.0329 -0.0469,-0.0483 -0.0732,0.0797 -0.14718,0.15834 -0.22998,0.22851 -0.10108,0.0799 -0.32407,0.26494 -0.46436,0.23584 -0.14625,-0.0303 -0.32216,-0.0652 -0.40576,-0.18896 -0.18475,-0.27348 -0.0869,-0.39255 0.019,-0.56836 0.0307,-0.0385 0.0625,-0.0762 0.0952,-0.11279 l -0.001,-0.001 c -0.14683,-0.25829 -0.23556,-0.34414 -0.22705,-0.4043 -0.005,-0.009 -0.012,-0.0175 -0.0176,-0.0264 v -0.001 -0.001 -0.001 l 0.001,-0.001 h 0.001 c 0.01,-0.006 0.0331,-0.009 0.0439,-0.0146 0.005,-0.002 0.0101,-0.005 0.0146,-0.007 0.0385,-0.0288 0.10349,-0.0636 0.19775,-0.12011 0.25459,-0.15322 0.50232,-0.31711 0.74854,-0.4834 0.0178,-0.022 0.0361,-0.0433 0.0542,-0.0659 0.0868,-0.10877 0.4692,-0.56991 0.542,-0.65771 0.13284,-0.15547 0.26523,-0.31165 0.3999,-0.46582 -0.066,-0.0366 -0.13096,-0.0753 -0.22412,-0.13038 -0.24768,-0.14451 -0.42761,-0.36738 -0.63135,-0.5625 -0.0147,-0.0111 -0.0279,-0.0247 -0.0439,-0.0337 -0.008,-0.005 -0.0188,-0.006 -0.0278,-0.009 -0.0248,-0.009 -0.0499,-0.016 -0.0747,-0.0234 -0.0885,0.0131 -0.1784,0.0194 -0.26807,0.0234 0.008,0.13494 -0.13603,0.0792 -0.29297,0.0205 -0.0417,-0.003 -0.0842,-0.007 -0.12598,-0.0102 -0.006,0.007 -0.0127,0.0161 -0.019,0.0234 -0.0914,0.10442 -0.27737,-0.008 -0.41601,-0.0132 -0.41168,-0.016 -0.82232,-0.0427 -1.2334,-0.0688 -0.6243,-0.005 -1.24956,0.002 -1.87354,0.001 7e-4,0.0191 0.002,0.0382 0.003,0.0571 3e-5,5e-4 -1e-5,0.004 0,0.004 v 0.001 h -0.001 v 0.001 0.001 h -0.001 v 0.001 h -0.001 v 0.001 h -0.001 -0.001 -0.001 c -0.0253,0.003 -0.0801,-0.0201 -0.10986,-0.0205 -0.005,-7e-5 -0.0101,7e-5 -0.0146,0 v 0.001 l -0.001,0.001 v 0.001 0.001 h -0.001 c -0.0582,0.1003 -0.23374,0.001 -0.3501,0.001 l -0.42187,0.003 c -0.10519,-7.3e-4 -0.20976,-9.3e-4 -0.31494,-0.003 -0.0635,0.0114 -0.12388,0.0139 -0.17432,-0.004 -0.13691,-0.003 -0.27731,-0.004 -0.38965,-0.0249 -0.2544,-0.004 -0.50987,-0.007 -0.76025,-0.0132 -0.19199,-0.004 -0.38407,-0.003 -0.57568,-0.0161 -0.17357,-0.0116 -0.43836,0.0972 -0.51856,-0.0571 -0.0167,-0.0322 -0.0322,-0.0625 -0.0469,-0.0923 -0.29494,0.0607 -0.78325,0.11089 -0.95215,0.13183 -0.2421,0.0165 -0.48413,0.0397 -0.72657,0.0498 -0.53464,0.0224 -1.14931,0.0249 -1.68164,-0.0205 -0.11693,-0.01 -0.32241,-0.0304 -0.54931,-0.063 -5.9e-4,0.0318 -0.003,0.0652 -0.007,0.10107 -0.0454,0.34542 -0.43104,0.33197 -0.65185,0.34717 -0.0289,0.001 -0.0575,0.002 -0.0864,0.003 -0.0787,0.0188 -0.16943,0.0276 -0.27099,0.0249 -0.24815,-0.007 -0.12808,-0.003 -0.35889,-0.009 v -0.001 -0.001 -0.001 c -0.0205,3.5e-4 -0.041,0.001 -0.0615,0.001 l -0.001,0.001 h -0.001 l -0.001,0.001 h -0.001 -0.001 c -0.002,-3.3e-4 -0.006,-0.001 -0.007,-0.001 h -0.001 v -0.001 c 0.005,-10e-5 0.0112,9e-5 0.0161,0 0.008,-0.0791 0.014,-0.15806 0.0205,-0.23731 -0.005,-0.0259 -0.01,-0.0517 -0.0146,-0.0776 -0.031,-0.0323 -0.0527,-0.0753 -0.0674,-0.13476 -0.10567,0.049 -0.23259,0.0859 -0.36181,0.13183 -0.11081,0.0309 -0.22069,0.0668 -0.33252,0.0937 -0.39947,0.0962 -0.81285,0.15535 -1.22461,0.15235 -0.13268,-8e-4 -0.27555,0.0286 -0.39698,-0.0249 -0.0205,-0.009 -0.0405,-0.0187 -0.0601,-0.0293 -0.0272,0.004 -0.0547,0.007 -0.082,0.0102 -0.36428,0.0435 -0.71532,0.0591 -1.08252,0.0439 -0.19482,-0.008 -0.39111,-0.0137 -0.583,-0.0483 -0.20311,-0.0367 -0.44419,-0.0235 -0.60498,-0.14795 -0.16564,0.022 -0.33122,0.0323 -0.49659,0.0293 -0.097,-0.002 -0.19597,-0.002 -0.29296,-0.0117 -0.1672,0.0799 -0.34623,0.13448 -0.53028,0.15527 -0.16366,0.0185 -0.33136,0.0266 -0.49365,-0.001 -0.17164,-0.0297 -0.3304,-0.11333 -0.49512,-0.16993 -0.11227,7.1e-4 -0.22464,0.001 -0.33691,0.001 -0.1903,0.008 -0.38093,0.0179 -0.57129,0.0249 -0.17411,0.007 -0.34873,0.01 -0.52295,0.0117 -0.12539,-5e-4 -0.25063,0.002 -0.375,0.019 -0.0282,0.004 -0.0567,0.009 -0.085,0.0132 -0.0115,0.0236 -0.0248,0.0454 -0.0396,0.063 -0.16147,0.19225 -0.30881,0.32329 -0.61377,0.19629 -0.12065,-0.0503 -0.16892,-0.20059 -0.25342,-0.30029 -0.009,-0.0557 -0.0214,-0.11069 -0.0264,-0.16699 -7e-5,-9.2e-4 7e-5,-0.002 0,-0.003 -0.003,-0.004 -0.007,-0.008 -0.0102,-0.0117 -0.0973,-0.11816 -0.13616,-0.28121 -0.16406,-0.42773 -0.0239,-0.12785 -0.0255,-0.25759 -0.0147,-0.38672 0.006,-0.0953 0.0185,-0.18948 0.0308,-0.28418 0.0116,-0.10435 0.0182,-0.2092 0.0308,-0.31348 0.0138,-0.10802 0.0214,-0.21648 0.0264,-0.32519 0.002,-0.24342 0.0691,-0.40225 0.25635,-0.53174 0.009,-0.0241 0.0197,-0.0471 0.0308,-0.0703 0.0268,-0.0564 0.032,-0.13629 0.0864,-0.16699 0.15656,-0.0883 0.34077,-0.11438 0.51123,-0.17138 0.0615,0.0799 0.1265,0.15802 0.18896,0.2373 0.21021,-0.006 0.42127,0.001 0.63135,0.0117 0.3398,0.0128 0.67813,0.0485 1.0166,0.0791 0.0648,0.005 0.12864,0.01 0.19336,0.0161 0.13008,-0.0495 0.26085,-0.13085 0.38818,-0.0908 0.10112,0.0318 0.19273,0.0904 0.27393,0.1626 0.0368,0.004 0.073,0.009 0.10986,0.0132 0.45282,0.0447 0.90656,0.074 1.36084,0.0996 0.46152,0.0224 0.92395,0.0484 1.38574,0.0645 0.42144,0.0132 0.84254,0.019 1.26416,0.022 0.49112,0.003 0.98252,0.004 1.47364,0.004 0.29151,0.009 0.58575,-0.018 0.87597,0.0205 0.0532,0.007 0.10671,0.0142 0.15821,0.0293 0.0576,0.0169 0.11109,0.0439 0.16699,0.0659 8.9e-4,0.001 0.002,0.002 0.003,0.003 0.3861,-0.26154 0.86544,-0.34862 1.33008,-0.29883 0.17557,0.0189 0.34491,0.0781 0.51709,0.11719 0.0418,0.0542 0.0897,0.10594 0.13769,0.15673 0.0727,-0.0682 0.14777,-0.13683 0.19776,-0.20947 0.34052,-0.0175 0.68005,-0.0138 1.02099,-0.006 0.55607,0.0133 1.11225,0.0363 1.66553,0.0967 0.38763,0.0518 0.70653,0.0833 1.07519,0.16846 0.0817,-0.0438 0.22592,-0.0398 0.45704,-0.0659 0.13816,-0.006 0.27632,-0.0136 0.41455,-0.0176 0.2112,-0.006 0.554,-0.0143 0.77197,0 0.0525,0.003 0.15227,-0.0261 0.15527,0.0264 0.001,0.0168 0.002,0.0322 0.003,0.0483 0.11373,0.023 0.22917,0.05 0.33692,0.0527 0.39044,0.0105 0.78,0.0239 1.17041,0.0352 1.81798,0.0534 3.63702,0.0899 5.45507,0.14063 0.0368,-2e-4 0.0731,1.8e-4 0.10987,0 -0.0235,-0.0133 -0.0446,-0.0322 -0.0674,-0.0469 -0.1237,-0.0799 -0.24364,-0.16421 -0.35742,-0.25781 -0.10808,-0.09 -0.2171,-0.17971 -0.33105,-0.26221 -0.19001,-0.14328 -0.37758,-0.29152 -0.53906,-0.46728 -0.218,-0.2378 -0.41175,-0.49535 -0.57129,-0.77637 -0.13225,-0.23171 -0.26176,-0.46619 -0.36328,-0.71338 -0.0735,-0.14498 -0.15754,-0.28269 -0.26514,-0.40576 -0.15164,-0.19659 -0.3367,-0.44014 -0.375,-0.69141 -0.012,-0.0775 -0.001,-0.15597 -0.001,-0.23437 0.022,-0.063 0.0237,-0.13727 0.0659,-0.18897 0.0786,-0.0963 0.17063,-0.1912 0.28418,-0.2417 0.0413,-0.0184 0.0819,-0.0264 0.12158,-0.0293 z m 0.0952,4.97461 v 0.001 c 0.002,-5e-5 0.004,5e-5 0.006,0 l -0.001,-0.001 h -0.001 z" />
  <path
     d="M 115.38 322.29 C 124.25 321.69 133.14 322.07 142.01 322.06 C 167.96 322.15 193.93 321.75 219.86 322.28 C 222.49 325.74 223.61 330.10 226.19 333.60 C 231.40 334.50 236.77 333.75 242.05 333.99 C 256.61 333.77 271.22 334.33 285.76 333.65 C 288.29 330.04 289.80 325.83 292.05 322.04 C 323.38 322.06 354.72 322.00 386.05 322.01 C 392.24 321.94 398.44 321.66 404.63 322.11 C 404.65 342.34 404.55 362.57 404.68 382.80 C 350.43 382.99 296.17 382.79 241.92 382.88 C 199.73 382.77 157.54 383.07 115.36 382.74 C 115.50 370.98 115.38 359.21 115.43 347.45 C 123.88 347.48 132.32 347.47 140.77 347.33 C 139.70 348.57 138.65 349.81 137.66 351.12 C 140.88 350.37 143.49 348.32 145.87 346.15 C 143.34 344.35 140.68 342.66 137.66 341.86 C 138.59 343.28 139.71 344.57 140.89 345.80 C 132.40 345.64 123.90 345.70 115.40 345.65 C 115.37 337.86 115.46 330.07 115.38 322.29 Z"
     fill="#666666"
     opacity="1.00"
     stroke="#666666"
     stroke-width="0.25"
     id="path116"
     style="fill:#666666;fill-opacity:1" />
  <path
     d="m 114.41099,384.6556 c 96.71376,0.0308 193.43757,0.0501 290.15134,-0.0193 0.15074,5.07132 -0.01,10.14262 0.10049,15.21394 -52.12534,0.14643 -104.27078,0.0154 -156.40617,0.0655 -44.16636,0.027 -88.34276,-0.0655 -132.50911,0.0694 -0.1206,-3.2794 -0.1005,-6.55494 -0.1005,-9.83433 -0.01,-1.83816 0.61301,-3.74568 -1.23605,-5.49521 z"
     fill="#f2ada1"
     opacity="1"
     stroke="#f2ada1"
     stroke-width="0.250563"
     id="path124" />
  <path
     d="m 115.74739,384.73143 c 1.95332,1.5467 1.29514,3.23307 1.30575,4.85812 0,2.8992 -0.0212,5.795 0.10616,8.6942 l -1.50745,-0.22485 c -0.22294,-4.43568 -0.3291,-8.88839 0.0955,-13.32747 z"
     fill="#f2c3bb"
     opacity="1"
     stroke="#f2c3bb"
     stroke-width="0.25"
     id="path125" />
  <path
     style="fill:#ffffff;fill-opacity:1;stroke-width:0.75"
     d="m 387.61954,198.30677 c 0.51153,-0.0464 0.98037,0.0548 1.48071,0.0548"
     id="path166" />
  <rect
     style="fill:#c6dea0;fill-opacity:1;stroke-width:0.75"
     id="rect166"
     width="4.9906063"
     height="9.1585245"
     x="385.80975"
     y="192.60326"
     ry="0.87746358" />
  <text
     xml:space="preserve"
     transform="scale(0.75)"
     id="text172"
     style="font-size:13.3333px;writing-mode:lr-tb;direction:ltr;white-space:pre;shape-inside:url(#rect172);display:inline;fill:#000000;fill-opacity:1" />
  <text
     xml:space="preserve"
     style="font-size:20px;writing-mode:lr-tb;direction:ltr;fill:#000000;fill-opacity:1;stroke-width:0.75"
     x="212.04237"
     y="158.37253"
     id="text173"><tspan
       sodipodi:role="line"
       id="tspan173"
       style="font-size:20px;stroke-width:0.75"
       x="212.04237"
       y="158.37253">-</tspan></text>
  <text
     xml:space="preserve"
     style="font-size:20px;writing-mode:lr-tb;direction:ltr;fill:#000000;fill-opacity:1;stroke-width:0.75"
     x="127.61582"
     y="215.24188"
     id="text173-9"><tspan
       sodipodi:role="line"
       id="tspan173-4"
       style="font-size:20px;stroke-width:0.75"
       x="127.61582"
       y="215.24188">-</tspan></text>
  <text
     xml:space="preserve"
     style="font-size:20px;writing-mode:lr-tb;direction:ltr;fill:#000000;fill-opacity:1;stroke-width:0.75"
     x="324.70999"
     y="211.06706"
     id="text173-8"><tspan
       sodipodi:role="line"
       id="tspan173-2"
       style="font-size:20px;stroke-width:0.75"
       x="324.70999"
       y="211.06706">-</tspan></text>
  <text
     xml:space="preserve"
     style="font-size:20px;writing-mode:lr-tb;direction:ltr;fill:#000000;fill-opacity:1;stroke-width:0.75"
     x="330.18488"
     y="293.27078"
     id="text173-8-5"><tspan
       sodipodi:role="line"
       id="tspan173-2-5"
       style="font-size:20px;stroke-width:0.75"
       x="330.18488"
       y="293.27078">-</tspan></text>
  <text
     xml:space="preserve"
     style="font-size:20px;writing-mode:lr-tb;direction:ltr;fill:#000000;fill-opacity:1;stroke-width:0.75"
     x="356.19473"
     y="214.63739"
     id="text173-8-5-4"><tspan
       sodipodi:role="line"
       id="tspan173-2-5-3"
       style="font-size:20px;stroke-width:0.75"
       x="356.19473"
       y="214.63739">-</tspan></text>
  <text
     xml:space="preserve"
     style="font-size:20px;writing-mode:lr-tb;direction:ltr;fill:#000000;fill-opacity:1;stroke-width:0.75"
     x="369.86047"
     y="283.03983"
     id="text173-8-7"><tspan
       sodipodi:role="line"
       id="tspan173-2-1"
       style="font-size:20px;stroke-width:0.75"
       x="369.86047"
       y="283.03983">-</tspan></text>
  <text
     xml:space="preserve"
     style="font-size:20px;writing-mode:lr-tb;direction:ltr;fill:#000000;fill-opacity:1;stroke-width:0.75"
     x="130.04587"
     y="295.77985"
     id="text173-8-52"><tspan
       sodipodi:role="line"
       id="tspan173-2-7"
       style="font-size:20px;stroke-width:0.75"
       x="130.04587"
       y="295.77985">-</tspan></text>
  <text
     xml:space="preserve"
     style="font-size:20px;writing-mode:lr-tb;direction:ltr;fill:#000000;fill-opacity:1;stroke-width:0.75"
     x="130.50587"
     y="295.99609"
     id="text173-8-52-2"><tspan
       sodipodi:role="line"
       id="tspan173-2-7-3"
       style="font-size:20px;stroke-width:0.75"
       x="130.50587"
       y="295.99609">-</tspan></text>
  <path
     d="m 132.83828,241.30217 c 2.02724,-2.98278 6.05448,-3.06602 9.14294,-2.05327 3.22452,1.13763 4.10887,4.82795 5.3878,7.64426 -1.25171,4.09266 -4.1633,8.60153 -8.97967,8.06047 -6.5851,0.2081 -10.14975,-9.05936 -5.55107,-13.65146 z"
     fill="#9f97c2"
     opacity="1"
     stroke="#9f97c2"
     stroke-width="0.343471"
     id="path44-1" />
  <path
     d="m 246.91747,209.01466 c 1.47169,-2.09422 4.39531,-2.15266 6.6374,-1.44162 2.34088,0.79875 2.98289,3.38973 3.91133,5.36707 -0.90868,2.87347 -3.02239,6.03917 -6.51888,5.65928 -4.78051,0.14611 -7.36832,-6.3606 -4.02985,-9.58473 z"
     fill="#9f97c2"
     opacity="1"
     stroke="#9f97c2"
     stroke-width="0.245216"
     id="path44-1-6" />
  <path
     d="m 266.20139,226.81287 c 1.43503,-1.98265 4.28582,-2.03798 6.47206,-1.36482 2.28257,0.7562 2.90858,3.20914 3.8139,5.08114 -0.88605,2.72039 -2.9471,5.71743 -6.35649,5.35778 -4.66143,0.13833 -7.18477,-6.02174 -3.92947,-9.0741 z"
     fill="#9f97c2"
     opacity="1"
     stroke="#9f97c2"
     stroke-width="0.235604"
     id="path44-1-6-8" />
  <path
     d="m 346.14181,240.26505 c 1.43503,-1.98265 4.28582,-2.03798 6.47206,-1.36482 2.28257,0.7562 2.90858,3.20914 3.8139,5.08114 -0.88605,2.72039 -2.9471,5.71743 -6.35649,5.35778 -4.66143,0.13833 -7.18477,-6.02174 -3.92947,-9.0741 z"
     fill="#9f97c2"
     opacity="1"
     stroke="#9f97c2"
     stroke-width="0.235604"
     id="path44-1-6-8-2" />
  <text
     xml:space="preserve"
     style="font-size:20px;writing-mode:lr-tb;direction:ltr;fill:#000000;fill-opacity:1;stroke-width:0.75"
     x="130.48175"
     y="253.40866"
     id="text174"><tspan
       sodipodi:role="line"
       id="tspan174"
       style="stroke-width:0.75"
       x="130.48175"
       y="253.40866">+</tspan></text>
  <text
     xml:space="preserve"
     style="font-size:14px;writing-mode:lr-tb;direction:ltr;fill:#000000;fill-opacity:1;stroke-width:0.75"
     x="227.8495"
     y="231.36691"
     id="text175"><tspan
       sodipodi:role="line"
       id="tspan175"
       style="font-style:normal;font-variant:normal;font-weight:bold;font-stretch:normal;font-size:14px;font-family:Arial;-inkscape-font-specification:'Arial Bold';stroke-width:0.75"
       x="227.8495"
       y="231.36691">+</tspan></text>
  <text
     xml:space="preserve"
     style="font-size:14px;writing-mode:lr-tb;direction:ltr;fill:#000000;fill-opacity:1;stroke-width:0.75"
     x="246.80116"
     y="217.65973"
     id="text175-23"><tspan
       sodipodi:role="line"
       id="tspan175-3"
       style="font-style:normal;font-variant:normal;font-weight:bold;font-stretch:normal;font-size:14px;font-family:Arial;-inkscape-font-specification:'Arial Bold';stroke-width:0.75"
       x="246.80116"
       y="217.65973">+</tspan></text>
  <text
     xml:space="preserve"
     style="font-size:14px;writing-mode:lr-tb;direction:ltr;fill:#000000;fill-opacity:1;stroke-width:0.75"
     x="266.63657"
     y="235.74998"
     id="text175-23-1"><tspan
       sodipodi:role="line"
       id="tspan175-3-1"
       style="font-style:normal;font-variant:normal;font-weight:bold;font-stretch:normal;font-size:14px;font-family:Arial;-inkscape-font-specification:'Arial Bold';stroke-width:0.75"
       x="266.63657"
       y="235.74998">+</tspan></text>
  <text
     xml:space="preserve"
     style="font-size:14px;writing-mode:lr-tb;direction:ltr;fill:#000000;fill-opacity:1;stroke-width:0.75"
     x="381.20926"
     y="214.81548"
     id="text175-2"><tspan
       sodipodi:role="line"
       id="tspan175-1"
       style="font-style:normal;font-variant:normal;font-weight:bold;font-stretch:normal;font-size:14px;font-family:Arial;-inkscape-font-specification:'Arial Bold';stroke-width:0.75"
       x="381.20926"
       y="214.81548">+</tspan></text>
  <text
     xml:space="preserve"
     style="font-size:14px;writing-mode:lr-tb;direction:ltr;fill:#000000;fill-opacity:1;stroke-width:0.75"
     x="359.54855"
     y="297.40845"
     id="text175-8"><tspan
       sodipodi:role="line"
       id="tspan175-5"
       style="font-style:normal;font-variant:normal;font-weight:bold;font-stretch:normal;font-size:14px;font-family:Arial;-inkscape-font-specification:'Arial Bold';stroke-width:0.75"
       x="359.54855"
       y="297.40845">+</tspan></text>
  <path
     style="fill:#666666;fill-opacity:1;stroke-width:0.051705"
     d="m 185.36593,466.97756 -0.14525,-0.1516 0.23804,-0.35806 c 0.27729,-0.41711 1.59509,-1.94731 1.97204,-2.2899 0.14219,-0.12923 0.37486,-0.32607 0.51705,-0.43742 0.38361,-0.3004 1.4282,-1.22409 1.40761,-1.24468 -0.01,-0.01 -1.88944,0.002 -4.17696,0.0253 -2.43197,0.0252 -4.1967,0.024 -4.24961,-0.003 -0.13027,-0.0664 -0.11466,-0.28425 0.0259,-0.36059 0.0872,-0.0474 1.17297,-0.0733 4.33029,-0.10339 2.31768,-0.0221 4.28882,-0.0536 4.38031,-0.0699 0.15531,-0.0278 0.16427,-0.0407 0.13518,-0.19574 -0.089,-0.47415 -0.58988,-1.19779 -1.23578,-1.78537 -0.41698,-0.37933 -1.80605,-1.33083 -2.41634,-1.65518 -0.67838,-0.36053 -0.94022,-0.57487 -1.3295,-1.08831 -0.19863,-0.26199 -0.36115,-0.50572 -0.36115,-0.54163 0,-0.0359 0.0312,-0.10791 0.0693,-0.16 0.0651,-0.089 0.0954,-0.0773 0.50412,0.19429 0.23918,0.15895 0.72572,0.53305 1.08119,0.83134 0.45311,0.38023 0.74678,0.58465 0.9824,0.68383 0.95002,0.39991 3.39931,1.48598 3.75899,1.66682 0.22646,0.11386 0.63469,0.2795 0.90718,0.36808 0.58439,0.18998 0.80707,0.32641 0.93263,0.57142 0.16957,0.33087 -0.0213,0.81236 -0.54463,1.37367 -0.33201,0.35612 -0.38245,0.46047 -0.12927,0.26741 0.0924,-0.0705 0.32411,-0.23721 0.51486,-0.37053 0.3403,-0.23785 0.3497,-0.24091 0.50084,-0.16275 0.0847,0.0438 0.16816,0.1025 0.18542,0.13044 0.0787,0.12741 -0.6524,0.75113 -1.21404,1.03566 -0.13265,0.0672 -0.56611,0.44409 -1.00825,0.87666 -0.76451,0.74796 -1.15952,1.05914 -1.71604,1.35189 -0.32115,0.16893 -0.48143,0.14058 -0.48143,-0.0852 0,-0.0996 0.066,-0.16987 0.29731,-0.31627 0.62867,-0.39793 0.84362,-0.54822 0.81911,-0.57273 -0.014,-0.014 -0.16037,0.0293 -0.32532,0.0961 -0.23185,0.0939 -0.4742,0.28001 -1.06814,0.82015 -1.1754,1.06891 -1.68376,1.40195 -2.48918,1.63069 -0.17062,0.0485 -0.33233,0.1088 -0.35935,0.13409 -0.0831,0.0778 -0.15829,0.0521 -0.30944,-0.10562 z m 1.18585,-0.71539 c 0.44889,-0.22524 0.83241,-0.51409 1.5028,-1.13182 0.55002,-0.50681 0.64625,-0.61798 0.62123,-0.71767 -0.0334,-0.13301 0.0465,-0.23948 0.76117,-1.01398 0.48486,-0.52547 0.79603,-0.92299 0.7225,-0.92299 -0.0255,0 -0.38238,0.29395 -0.79297,0.65323 -0.41059,0.35928 -0.95594,0.82204 -1.21188,1.02836 -0.25594,0.20632 -0.59355,0.5115 -0.75024,0.67817 -0.36383,0.38701 -1.31197,1.50584 -1.337,1.5777 -0.0248,0.0712 0.15036,0.0166 0.48439,-0.151 z m 4.28108,-3.45918 c 0.85985,-0.64647 1.48403,-1.35686 1.48403,-1.68901 0,-0.11837 -0.17365,-0.21544 -0.62046,-0.34686 -0.21329,-0.0627 -0.67863,-0.25314 -1.0341,-0.42314 -0.7304,-0.34929 -1.80609,-0.81546 -1.88168,-0.81546 -0.0276,0 0.14879,0.20359 0.3919,0.45242 0.50709,0.51901 0.87004,1.05056 1.00848,1.47696 l 0.0961,0.29584 0.33481,-0.28461 c 0.40034,-0.34033 0.56462,-0.37054 0.65876,-0.12114 0.0573,0.15179 0.046,0.19497 -0.14135,0.54238 -0.11198,0.2076 -0.33848,0.55743 -0.50334,0.77739 -0.35111,0.4685 -0.39296,0.53182 -0.35151,0.53182 0.017,0 0.26829,-0.17846 0.5584,-0.39659 z"
     id="path190"
     transform="scale(0.75)" />
  <rect
     style="fill:#666666;fill-opacity:1;stroke-width:0.75"
     id="rect193"
     width="33.466087"
     height="11.362183"
     x="115.40564"
     y="340.59399"
     ry="0.87746358" />
  <text
     xml:space="preserve"
     transform="scale(0.75)"
     id="text194"
     style="font-style:normal;font-variant:normal;font-weight:bold;font-stretch:normal;font-size:18.6667px;font-family:Arial;-inkscape-font-specification:'Arial Bold';writing-mode:lr-tb;direction:ltr;white-space:pre;shape-inside:url(#rect194);display:inline;fill:#000000;fill-opacity:1" />
  <text
     xml:space="preserve"
     transform="matrix(0.75,0,0,0.75,107.46674,-41.67952)"
     id="text195"
     style="font-style:normal;font-variant:normal;font-weight:bold;font-stretch:normal;font-size:18.6667px;font-family:Arial;-inkscape-font-specification:'Arial Bold';writing-mode:lr-tb;direction:ltr;white-space:pre;shape-inside:url(#rect195);display:inline;fill:#000000;fill-opacity:1"><tspan
       x="124.59961"
       y="584.82583"
       id="tspan1">Current collector</tspan></text>
  <text
     xml:space="preserve"
     transform="matrix(0.75,0,0,0.75,57.991693,-102.66324)"
     id="text196"
     style="font-style:normal;font-variant:normal;font-weight:bold;font-stretch:normal;font-size:18.6667px;font-family:Arial;-inkscape-font-specification:'Arial Bold';writing-mode:lr-tb;direction:ltr;white-space:pre;shape-inside:url(#rect196);display:inline;fill:#000000;fill-opacity:1"><tspan
       x="223.46094"
       y="622.26333"
       id="tspan2">Electrode</tspan></text>
  <text
     xml:space="preserve"
     transform="matrix(0.75,0,0,0.75,85.405722,-136.88432)"
     id="text197"
     style="font-style:normal;font-variant:normal;font-weight:bold;font-stretch:normal;font-size:18.6667px;font-family:Arial;-inkscape-font-specification:'Arial Bold';writing-mode:lr-tb;direction:ltr;white-space:pre;shape-inside:url(#rect197);display:inline;fill:#000000;fill-opacity:1"><tspan
       x="162.62305"
       y="581.90005"
       id="tspan3">Inorganic layer</tspan></text>
  <text
     xml:space="preserve"
     transform="matrix(0.75,0,0,0.75,79.663057,-182.07369)"
     id="text198"
     style="font-style:normal;font-variant:normal;font-weight:bold;font-stretch:normal;font-size:18.6667px;font-family:Arial;-inkscape-font-specification:'Arial Bold';writing-mode:lr-tb;direction:ltr;white-space:pre;shape-inside:url(#rect198);display:inline;fill:#000000;fill-opacity:1"><tspan
       x="177.24805"
       y="593.59927"
       id="tspan4">Organic layer</tspan></text>
  <text
     xml:space="preserve"
     transform="matrix(0.75,0,0,0.75,113.63153,-254.90317)"
     id="text199"
     style="font-style:normal;font-variant:normal;font-weight:bold;font-stretch:normal;font-size:18.6667px;font-family:Arial;-inkscape-font-specification:'Arial Bold';writing-mode:lr-tb;direction:ltr;white-space:pre;shape-inside:url(#rect200);display:inline;fill:#000000;fill-opacity:1"><tspan
       x="145.6582"
       y="585.99575"
       id="tspan5">Electrolyte</tspan></text>
</svg>
