<?xml version="1.0" encoding="UTF-8" standalone="no"?>
<svg
   height="295.07416pt"
   version="1.1"
   viewBox="0 0 293.51004 295.07416"
   width="293.51004pt"
   id="svg154"
   sodipodi:docname="SEI.svg"
   inkscape:version="1.4.3 (0d15f75, 2025-12-25)"
   xmlns:inkscape="http://www.inkscape.org/namespaces/inkscape"
   xmlns:sodipodi="http://sodipodi.sourceforge.net/DTD/sodipodi-0.dtd"
   xmlns="http://www.w3.org/2000/svg"
   xmlns:svg="http://www.w3.org/2000/svg">
  <defs
     id="defs154">
    <rect
       x="145.65895"
       y="569.1814"
       width="243.93488"
       height="88.331337"
       id="rect200" />
    <rect
       x="177.24763"
       y="576.78607"
       width="314.13196"
       height="53.232792"
       id="rect198" />
    <rect
       x="162.62325"
       y="565.08655"
       width="379.06427"
       height="49.722935"
       id="rect197" />
    <rect
       x="223.46072"
       y="605.44989"
       width="226.97058"
       height="29.248787"
       id="rect196" />
    <rect
       x="124.59983"
       y="568.01141"
       width="177.24763"
       height="74.291916"
       id="rect195" />
    <rect
       x="201.23164"
       y="514.19366"
       width="296.5827"
       height="18.719223"
       id="rect194" />
    <rect
       x="281.06857"
       y="195.65186"
       width="17.579714"
       height="14.06377"
       id="rect172" />
  </defs>
  <sodipodi:namedview
     id="namedview154"
     pagecolor="#ffffff"
     bordercolor="#000000"
     borderopacity="0.25"
     inkscape:showpageshadow="2"
     inkscape:pageopacity="0.0"
     inkscape:pagecheckerboard="0"
     inkscape:deskcolor="#d1d1d1"
     inkscape:document-units="pt"
     inkscape:zoom="1.7094727"
     inkscape:cx="377.30933"
     inkscape:cy="248.32219"
     inkscape:window-width="2560"
     inkscape:window-height="1369"
     inkscape:window-x="2728"
     inkscape:window-y="-8"
     inkscape:window-maximized="1"
     inkscape:current-layer="svg154" />
  <rect
     style="fill:#bfe3ef;fill-opacity:1;stroke-width:0.798329"
     id="rect199"
     width="293.07281"
     height="106.1731"
     x="0.35775378"
     y="0"
     ry="1.0016329" />
  <path
     d="m 100.84623,36.610696 c 6.04,-2.66 12.95,3.83 10.75,10 -1.37,6.06 -10.18,7.84 -13.989999,3.06 -4,-3.9 -2.07,-11.45 3.239999,-13.06 z"
     fill="#030302"
     opacity="1"
     stroke="#030302"
     stroke-width="0.25"
     id="path2" />
  <path
     d="m 100.80623,38.560696 c 4.5,-2.62 10.44,2.02 9.24,7.02 -0.72,5.13 -8.12,6.84 -11.239999,2.87 -2.73,-2.98 -1.41,-8.04 1.999999,-9.89 z"
     fill="#f7e797"
     opacity="1"
     stroke="#f7e797"
     stroke-width="0.25"
     id="path3" />
  <path
     d="m 260.69623,47.610696 c -1.87,-4.23 3.31,-8.58 7.25,-6.35 3.56,1.38 3.09,6.03 1.34,8.69 -2.93,1.56 -7.42,1.25 -8.59,-2.34 z"
     fill="#050505"
     opacity="1"
     stroke="#050505"
     stroke-width="0.25"
     id="path4" />
  <path
     d="m 262.40623,44.560696 c 1.42,-3.26 5.44,-2.05 6.9,0.52 -0.26,0.81 -0.79,2.43 -1.05,3.24 -2.73,1.99 -7.2,-0.13 -5.85,-3.76 z"
     fill="#9e97c5"
     opacity="1"
     stroke="#9e97c5"
     stroke-width="0.25"
     id="path5" />
  <path
     d="m 272.85623,44.540696 c 1.77,0.13 3.85,-0.29 5.09,1.32 -1.67,0.2 -3.35,0.32 -5.02,0.44 -0.02,-0.44 -0.05,-1.32 -0.07,-1.76 z"
     fill="#181818"
     opacity="1"
     stroke="#181818"
     stroke-width="0.25"
     id="path8" />
  <path
     id="path15"
     style="display:inline"
     d="m 276.73062,82.073196 c -0.002,0.007 -0.005,0.0125 -0.007,0.019 0.005,-0.004 0.0103,-0.009 0.0161,-0.0132 z m -0.0981,0.26514 c -0.008,0.0228 -0.0165,0.0461 -0.0249,0.0688 0.0208,0.001 0.0419,0.003 0.0645,0.007 -0.019,-0.0237 -0.0319,-0.0491 -0.0396,-0.0762 z m -0.53027,0.92285 c -18.764,-0.85529 -37.2775,2.90519 -55.37549,7.42969 -2.25,-0.77 -4.6801,-2.12971 -7.1001,-1.19971 -2.42,0.52 -3.86006,2.65898 -5.31006,4.45898 -10.52,2.55 -20.99992,5.31061 -31.66992,7.120614 -1.94,-0.79 -3.67994,-2.569964 -5.93994,-1.959964 -2.2,0.11 -3.32076,2.300314 -4.53076,3.820314 -6.74,0.49 -13.44924,1.43016 -20.21924,1.16016 -1.07,-3.51 -4.22994,-6.791144 -8.18994,-6.161144 -3.53,0.04 -5.63084,3.220844 -7.36084,5.860844 -17.15,-2.03 -33.999459,-5.970334 -50.689459,-10.340334 -14.46,-3.62 -29.07982,-7.37045 -44.06982,-7.46045 -12.05,-0.33 -24.09057,1.99049 -35.33057035,6.25049 0.23,24.440004 -0.20982,48.900334 0.18018,73.340334 1.88999995,-2.29 1.60966995,-5.33008 1.65966995,-8.08008 -0.07,-10.68 -0.0992,-21.37078 0.0308,-32.05078 V 125.04 c 18.2300004,-5.78 37.6492004,-8.64991 56.6792004,-5.64991 25.15,3.24 48.530489,14.3109 73.750489,17.1709 19.03,2.21 38.16943,-0.49045 56.91943,-3.71045 18.44,-3.08 36.62061,-7.58937 55.12061,-10.35937 2.22,-0.36 4.44962,-0.76014 6.61962,-1.39014 -0.17,-0.23 -0.49943,-0.68992 -0.66943,-0.91992 -3.61,-0.28 -7.15017,0.58016 -10.68017,1.16016 -18.06,3.15 -35.94077,7.29906 -54.03077,10.28906 -16.92,2.75 -34.13882,5.12984 -51.29882,3.33984 -17.77,-1.69 -34.630509,-7.8692 -51.770509,-12.4292 -14.36,-3.91 -29.18059,-6.49056 -44.10059,-6.08056 -12.49,0.42 -24.83943,2.93967 -36.6694304,6.90967 0.03,-0.84 0.10062,-2.49959 0.14062,-3.32959 0.14,-8.62 -0.18058,-17.24915 0.14942,-25.869154 l 0.0893,-0.85107 c 11.5700004,-4.16 23.9311904,-6.06953 36.2211904,-5.51953 0.55,3.51 1.11004,7.01 1.79004,10.5 -1.5,-1.03 -3.00017,-2.08932 -4.68017,-2.79932 1.44,2.55 3.05918,5.038894 5.15918,7.108894 2.86,-1.5 3.81996,-5.019084 4.95996,-7.809084 -1.43,1.22 -2.72024,2.58972 -3.99024,3.96972 -0.26,-3.69 -0.80884,-7.3397 -1.56884,-10.9497 14.75,1.24 29.18873,4.71908 43.44873,8.55908 15.39,3.920004 30.920929,7.370684 46.710929,9.200684 0.79,3.98 3.7,8.12967 8.25,7.65967 4.19,0.18 6.42024,-3.87021 7.74024,-7.22021 6.67,-0.12 13.319,-0.74946 19.979,-1.18946 0.37,1.18 0.7599,2.35028 1.1499,3.53028 -1.93,2.39 -3.85923,4.8091 -5.21923,7.5791 3.42,-0.97 4.94004,-4.41897 7.04004,-6.93897 0.77,0.22 2.3091,0.66916 3.0791,0.88916 1.58,4.15 1.86115,9.10061 5.18115,12.37061 -0.42,-4.41 -2.31053,-8.46065 -3.54053,-12.66065 1.8,-1.87 2.72998,-4.26929 3.22998,-6.77929 10.15,-1.98 20.25074,-4.211084 30.26074,-6.851084 0.71,2.47 1.19952,5.390944 3.49952,6.960944 3.56,2.84 9.48966,1.54914 11.40966,-2.63086 1.54,-2.600004 0.33075,-5.509374 -0.48925,-8.109374 17.52,-4.14 35.33947,-8.07061 53.45947,-7.12061 -0.0198,0.0774 -0.0403,0.15546 -0.0601,0.23291 0.0429,-0.0987 0.11083,-0.183 0.22412,-0.22998 0.0447,-0.019 0.0961,-0.0188 0.14356,-0.0278 0.11387,0.006 0.22678,0.0216 0.3413,0.0146 0.12635,0.001 0.25161,0.001 0.37793,0.004 0.1272,0.004 0.25482,0.009 0.38086,0.0278 0.16217,0.0287 0.33609,0.0801 0.40137,0.24756 0.0137,-0.05 0.0273,-0.0994 0.041,-0.14941 4.68,0.52 9.36951,0.98959 13.99951,1.82959 0.05,10.66 -0.03,21.310214 0,31.970214 -13.39,-2.01 -27.00963,-1.19896 -40.36963,0.56104 0.4,0.36 1.22037,1.07994 1.63037,1.43994 12.25,-1.12 24.67992,-2.31111 36.91992,-0.39111 l 1.75928,0.28125 c 0.02,12.53 -0.0997,25.0591 0.0703,37.5791 0.01,0.63 0.0401,1.89978 0.0601,2.52978 l 1.43994,-1.70947 c 0.52,-1.16 0.1903,-2.54051 0.3003,-3.77051 -0.12,-23.2 -0.0197,-46.39937 0.0102,-69.609374 -4.89,-1.39 -9.97981,-1.98 -15.04981,-2.25 0.0179,-0.0476 0.0363,-0.0957 0.0542,-0.14356 -0.12187,-0.0227 -0.24595,-0.0374 -0.36914,-0.0513 -0.19098,-0.0137 -0.38095,-0.0338 -0.57129,-0.0542 -0.16503,-0.0159 -0.3307,-0.0253 -0.49511,-0.0469 -0.168,-0.0194 -0.33605,-0.0377 -0.50391,-0.0586 -0.0562,-0.007 -0.10628,-0.019 -0.14941,-0.0351 z m -0.30469,2.33203 c 0.015,0.013 0.0357,0.0106 0.0571,0.003 -0.0191,-0.001 -0.038,-0.002 -0.0571,-0.003 z m 0.14062,0.009 c -0.005,0.0354 -0.0108,0.0715 -0.0161,0.10693 -0.004,0.0661 -0.0106,0.13223 -0.019,0.19776 0.0135,-0.0716 0.0235,-0.14402 0.0293,-0.2168 0.002,-0.0311 0.006,-0.0607 0.0117,-0.0879 h -10e-4 z m 1.26709,0.17724 c -0.009,0.0196 -0.0142,0.0402 -0.0176,0.063 0.006,-0.0213 0.0118,-0.0416 0.0176,-0.063 z m -0.41894,1.56299 c -0.009,0.003 -0.0196,0.004 -0.0308,0.004 -0.0141,0.0161 -0.0284,0.0322 -0.0425,0.0483 -0.005,0.005 -0.0103,0.009 -0.0147,0.0132 0.0154,0.0485 0.0262,0.0977 0.0322,0.14795 0.0189,-0.0707 0.0367,-0.14301 0.0557,-0.21387 z m -0.58594,0.94043 c -0.002,0.003 -0.004,0.005 -0.006,0.007 -6.4e-4,0.019 10e-4,0.037 10e-4,0.0454 0.007,-0.0153 0.0126,-0.0357 0.006,-0.0498 v -0.001 z m -1.59375,0.4043 c -0.0384,0.15564 -0.0776,0.31162 -0.11572,0.46728 0.0223,-0.0179 0.0463,-0.0319 0.0703,-0.041 0.0147,-0.0411 0.028,-0.0827 0.041,-0.12451 0.0165,-0.0617 0.0336,-0.12317 0.0513,-0.18457 -0.0174,-0.0379 -0.0326,-0.077 -0.0469,-0.11719 z m 1.58496,0.95654 c -0.0204,0.01 -0.0398,0.0208 -0.0586,0.0308 0.0134,0.12362 -0.0435,0.2592 -0.0776,0.38086 -0.0399,0.16388 -0.0752,0.32944 -0.10693,0.49512 -0.034,0.14415 -0.0641,0.28784 -0.0894,0.43359 0.10979,-0.44753 0.21974,-0.89363 0.33252,-1.34033 z m -1.96728,0.61524 c -0.0135,0.0559 -0.0276,0.11085 -0.041,0.16699 9.9e-4,-10e-4 0.002,-0.002 0.003,-0.003 l 0.003,-0.003 h 10e-4 v -10e-4 c 0.0111,-0.0538 0.0229,-0.10597 0.0337,-0.15966 z m -0.13916,0.58008 c -0.0356,0.14991 -0.0716,0.2997 -0.10694,0.4497 0.004,-0.0144 0.009,-0.0282 0.0132,-0.0425 0.0349,-0.12843 0.0705,-0.2562 0.104,-0.38525 -0.004,-0.007 -0.007,-0.0145 -0.0103,-0.022 z m -0.18164,0.77783 c -0.18719,0.8009 -0.37106,1.60022 -0.54786,2.40381 -2.37,0.78 -5.07873,1.28035 -6.69873,3.36035 -3.3,3.760004 -1.66058,10.519164 3.14942,12.139164 4.74,2.27 11.04998,-1.63877 10.72998,-6.98877 0.36501,-3.689604 -2.66642,-6.172344 -5.37891,-8.024424 -0.11089,0.0252 -0.21804,-0.006 -0.32226,-0.0688 -0.0863,-0.0372 -0.16741,-0.0803 -0.26221,-0.0937 -0.16361,-0.0412 -0.33198,-0.0658 -0.48926,-0.13037 -0.0829,-0.0311 -0.16609,-0.0748 -0.25049,-0.10108 -0.0263,-0.008 -0.0533,-0.012 -0.0791,-0.022 -0.0327,-0.0121 -0.0633,-0.0283 -0.0952,-0.0425 -0.0297,-0.0233 -0.0648,-0.0402 -0.0894,-0.0688 -0.1206,-0.14052 -0.12308,-0.30928 -0.0571,-0.47314 0.0382,-0.0927 0.0841,-0.18252 0.11426,-0.27832 0.0369,-0.0958 0.074,-0.18728 0.082,-0.29151 0.0223,-0.13147 0.0328,-0.26569 0.0571,-0.39697 0.0164,-0.18413 0.0394,-0.36749 0.0732,-0.54932 0.0205,-0.12566 0.0405,-0.24849 0.0645,-0.37353 z m 0.16259,1.99072 c -8e-4,0.002 -0.002,0.004 -0.003,0.006 0.006,0.003 0.0138,0.005 0.0205,0.007 -0.006,-0.004 -0.0119,-0.009 -0.0176,-0.0132 z m 0.3794,0.14648 c 0.0855,0.0217 0.17209,0.038 0.25781,0.0586 0.0747,0.0126 0.14478,0.0363 0.21387,0.0644 -6.5e-4,-0.0244 -0.003,-0.0475 -0.004,-0.0718 -0.09,-0.0101 -0.1784,-0.0237 -0.26806,-0.0366 -0.0664,-0.004 -0.13326,-0.006 -0.19922,-0.0147 z" />
  <path
     d="m 80.866231,65.650696 c 3.69,-2.39 8.79,1.58 7.65,5.72 -0.6,4 -6.39,5.27 -8.88,2.27 -2.26,-2.24 -1.58,-6.56 1.23,-7.99 z"
     fill="#050505"
     opacity="1"
     stroke="#050505"
     stroke-width="0.25"
     id="path22" />
  <path
     d="m 80.996231,67.920696 c 1.47,-1.72 4.71,-1.56 5.51,0.73 1.43,2.39 -1.15,5.5 -3.79,4.78 -2.48,-0.3 -3.67,-4 -1.72,-5.51 z"
     fill="#9e97c5"
     opacity="1"
     stroke="#9e97c5"
     stroke-width="0.25"
     id="path24" />
  <path
     d="m 222.05623,92.190696 c 17.52,-4.14 35.34,-8.07 53.46,-7.12 -0.76,2.97 -1.5,5.95 -2.16,8.95 -2.37,0.78 -5.08,1.28 -6.7,3.36 -3.3,3.760004 -1.66,10.520004 3.15,12.140004 4.74,2.27 11.05,-1.64 10.73,-6.99 0.37,-3.740004 -2.75,-6.240004 -5.49,-8.100004 0.7,-3.1 1.48,-6.18 2.32,-9.24 4.68,0.52 9.37,0.99 14,1.83 0.05,10.66 -0.03,21.310004 0,31.970004 -13.39,-2.01 -27.01,-1.2 -40.37,0.56 0.4,0.36 1.22,1.08 1.63,1.44 -0.34,0.03 -1.01,0.08 -1.35,0.11 -0.17,-0.23 -0.5,-0.69 -0.67,-0.92 -3.61,-0.28 -7.15,0.58 -10.68,1.16 -18.06,3.15 -35.94,7.3 -54.03,10.29 -16.92,2.75 -34.14,5.13 -51.3,3.34 -17.77,-1.69 -34.629999,-7.87 -51.769999,-12.43 -14.36,-3.91 -29.18,-6.49 -44.1,-6.08 -12.49,0.42 -24.84,2.94 -36.6700004,6.91 0.03,-0.84 0.1,-2.5 0.14,-3.33 0.46,-0.24 1.39,-0.73 1.85,-0.97 -0.55,-8.2 -0.4,-16.43 0.02,-24.640004 -0.43,-0.06 -1.29,-0.19 -1.72,-0.26 l 0.09,-0.85 c 11.5700004,-4.16 23.9300004,-6.07 36.2200004,-5.52 0.55,3.51 1.11,7.01 1.79,10.5 -1.5,-1.03 -3,-2.09 -4.68,-2.8 1.44,2.55 3.06,5.040004 5.16,7.110004 2.86,-1.5 3.82,-5.020004 4.96,-7.810004 -1.43,1.22 -2.72,2.59 -3.99,3.97 -0.26,-3.69 -0.81,-7.34 -1.57,-10.95 14.75,1.24 29.19,4.72 43.45,8.56 15.39,3.920004 30.919999,7.370004 46.709999,9.200004 0.79,3.98 3.7,8.13 8.25,7.66 4.19,0.18 6.42,-3.87 7.74,-7.22 6.67,-0.12 13.32,-0.75 19.98,-1.19 0.37,1.18 0.76,2.35 1.15,3.53 -1.93,2.39 -3.86,4.81 -5.22,7.58 3.42,-0.97 4.94,-4.42 7.04,-6.94 0.77,0.22 2.31,0.67 3.08,0.89 1.58,4.15 1.86,9.1 5.18,12.37 -0.42,-4.41 -2.31,-8.46 -3.54,-12.66 1.8,-1.87 2.73,-4.27 3.23,-6.78 10.15,-1.98 20.25,-4.210004 30.26,-6.850004 0.71,2.47 1.2,5.390004 3.5,6.960004 3.56,2.84 9.49,1.55 11.41,-2.63 1.54,-2.600004 0.33,-5.510004 -0.49,-8.110004 z"
     fill="#c6dea0"
     opacity="1"
     stroke="#c6dea0"
     stroke-width="0.25"
     id="path25" />
  <path
     d="m 215.12623,91.020696 c 4.68,-0.52 8.29,5.19 5.4,9.050004 -2.46,4.06 -9.26,3.07 -10.39,-1.520004 -1.17,-3.51 1.39,-7.18 4.99,-7.53 z"
     fill="#fae992"
     opacity="1"
     stroke="#fae992"
     stroke-width="0.25"
     id="path26" />
  <path
     d="m 15.246231,94.210696 c 4.61,-2.96 11.16,0.8 11.28,6.160004 0.78,5.58 -5.95,10.07 -10.84,7.4 -5.43,-2.36 -5.7600004,-10.840004 -0.44,-13.560004 z"
     fill="#031000"
     opacity="1"
     stroke="#031000"
     stroke-width="0.25"
     id="path27" />
  <path
     d="m 2.3462306,94.170696 c 0.43,0.07 1.29,0.2 1.72,0.26 -0.42,8.210004 -0.57,16.440004 -0.02,24.640004 -0.46,0.24 -1.39,0.73 -1.85,0.97 0.14,-8.62 -0.18,-17.25 0.15,-25.870004 z"
     fill="#d7e9bd"
     opacity="1"
     stroke="#d7e9bd"
     stroke-width="0.25"
     id="path28" />
  <path
     d="m 245.01623,94.810696 c 4.78,-1.97 10.06,3.49 8.11,8.230004 -1.37,4.53 -7.92,5.46 -10.89,1.98 -3.08,-3.17 -1.32,-8.880004 2.78,-10.210004 z"
     fill="#000c00"
     opacity="1"
     stroke="#000c00"
     stroke-width="0.25"
     id="path29" />
  <path
     d="m 14.486231,97.330696 c 2.81,-4.31 10.07,-1.91 10.19,3.090004 0.52,3.68 -2.77,5.89 -5.93,6.56 -4.29,-0.74 -7.25,-5.97 -4.26,-9.650004 z"
     fill="#dceac8"
     opacity="1"
     stroke="#dceac8"
     stroke-width="0.25"
     id="path30" />
  <path
     d="m 17.946231,96.690696 c 3.14,-0.6 5.67,2.86 5.12,5.780004 -1,3.01 -5.46,3.38 -7.34,1.05 -2.22,-2.04 -0.6,-6.290004 2.22,-6.830004 z"
     fill="#f8eb96"
     opacity="1"
     stroke="#f8eb96"
     stroke-width="0.25"
     id="path31" />
  <path
     d="m 245.03623,96.910696 c 2.38,-0.91 5.74,-0.25 6.32,2.59 1.3,3.340004 -2.28,6.720004 -5.56,5.670004 -3.66,-0.83 -4.1,-6.860004 -0.76,-8.260004 z"
     fill="#dceac8"
     opacity="1"
     stroke="#dceac8"
     stroke-width="0.25"
     id="path32" />
  <path
     d="m 270.79623,96.670696 c 3.6,-1.59 8.4,1.78 7.82,5.800004 0.51,5.1 -6.66,7.84 -9.99,4.23 -3.32,-2.81 -1.99,-8.810004 2.17,-10.030004 z"
     fill="#a59fc7"
     opacity="1"
     stroke="#a59fc7"
     stroke-width="0.25"
     id="path33" />
  <path
     d="m 244.72623,98.560696 c 1.51,-0.82 4.26,-0.76 5.02,1.06 1.48,2.180004 -1.62,5.420004 -3.84,3.910004 -1.94,-0.84 -1.82,-3.32 -1.18,-4.970004 z"
     fill="#c7e39b"
     opacity="1"
     stroke="#c7e39b"
     stroke-width="0.25"
     id="path34" />
  <path
     d="m 137.35623,99.830696 c 4.24,-1.19 8.03,3.730004 6.48,7.660004 -0.91,3.68 -5.89,5.14 -8.79,2.84 -1.66,-1.1 -2.12,-3.16 -2.85,-4.87 1.05,-2.36 2.26,-5.19 5.16,-5.630004 z"
     fill="#c6dcb3"
     opacity="1"
     stroke="#c6dcb3"
     stroke-width="0.25"
     id="path35" />
  <path
     d="m 170.19623,101.1107 c 2.67,-1.560004 6.11,1.56 4.77,4.39 -0.75,2.96 -5.19,3.06 -6.55,0.54 -0.87,-1.82 -0.07,-4.1 1.78,-4.93 z"
     fill="#cfe1b0"
     opacity="1"
     stroke="#cfe1b0"
     stroke-width="0.25"
     id="path36" />
  <path
     d="m 49.146231,102.6007 c 0.98,-0.29 1.97,-0.49 2.97,-0.71 0.59,2.95 0.62,5.98 0.5,8.98 -3.86,0.11 -7.74,0.19 -11.59,-0.25 0.26,-0.43 0.78,-1.28 1.03,-1.7 2.98,0.05 5.95,0.08 8.93,0.08 -0.04,-1.44 -0.08,-2.89 -0.12,-4.33 -0.59,-0.68 -1.17,-1.37 -1.72,-2.07 z"
     fill="#031000"
     opacity="1"
     stroke="#031000"
     stroke-width="0.25"
     id="path37" />
  <path
     d="m 226.94623,103.8407 c 4,-2.67 9.75,2.2 7.38,6.48 -1.28,3.41 -6.44,4.13 -8.62,1.23 -2.08,-2.22 -1.4,-6.27 1.24,-7.71 z"
     fill="#031000"
     opacity="1"
     stroke="#031000"
     stroke-width="0.25"
     id="path38" />
  <path
     d="m 70.926231,112.3307 c -1.06,-4.83 4.29,-9.46 8.8,-6.9 4.35,1.62 1.98,8.47 6.96,9.26 3.71,0.54 4.8,-3.71 5.69,-6.39 3.26,4.68 -3.18,10.14 -7.76,7.63 -4.32,-1.35 -2.29,-7.4 -6.16,-9.07 -1.97,-0.71 -3.71,0.52 -5.14,1.72 -0.53,1.44 -0.1,4.13 -2.39,3.75 z"
     fill="#031000"
     opacity="1"
     stroke="#031000"
     stroke-width="0.25"
     id="path39" />
  <path
     d="m 187.93623,110.9407 c 1.29,-2.66 3.44,-5.57 6.79,-5.12 3.85,0.02 6.27,4.07 5.35,7.61 -0.71,2.42 1.16,4.79 3.61,4.9 3.18,0.25 4.11,-3.52 6.38,-4.99 0.92,5.82 -7.39,9.25 -10.82,4.6 -2.72,-2.82 1.12,-8.1 -3.09,-9.85 -2.62,-1.56 -5.33,0.75 -6.2,3.21 -0.5,-0.09 -1.51,-0.27 -2.02,-0.36 z"
     fill="#031000"
     opacity="1"
     stroke="#031000"
     stroke-width="0.25"
     id="path40" />
  <path
     d="m 227.20623,105.9207 c 2.84,-3.48 8.11,2.07 4.65,4.79 -2.83,2.99 -7.71,-2.05 -4.65,-4.79 z"
     fill="#ccdaa7"
     opacity="1"
     stroke="#ccdaa7"
     stroke-width="0.25"
     id="path41" />
  <path
     d="m 116.16623,112.1607 c 5.31,-2.32 11.63,2.85 10.4,8.5 -0.49,5.82 -8.57,8.62 -12.72,4.61 -4.48,-3.48 -2.95,-11.28 2.32,-13.11 z"
     fill="#000900"
     opacity="1"
     stroke="#000900"
     stroke-width="0.25"
     id="path42" />
  <path
     d="m 181.93623,112.6807 c 3.43,-0.11 6.86,-0.02 10.28,0.2 0.05,3.44 0.06,6.88 0.06,10.31 -3.44,0.17 -6.89,0.18 -10.33,0.07 -0.13,-3.53 -0.14,-7.06 -0.01,-10.58 z"
     fill="#031000"
     opacity="1"
     stroke="#031000"
     stroke-width="0.25"
     id="path43" />
  <path
     d="m 114.62623,115.5007 c 1.49,-2.15 4.45,-2.21 6.72,-1.48 2.37,0.82 3.02,3.48 3.96,5.51 -0.92,2.95 -3.06,6.2 -6.6,5.81 -4.84,0.15 -7.46,-6.53 -4.08,-9.84 z"
     fill="#9f97c2"
     opacity="1"
     stroke="#9f97c2"
     stroke-width="0.25"
     id="path44" />
  <path
     d="m 183.53623,114.3907 c 2.33,0 4.66,-0.01 6.99,-0.02 -0.05,2.35 -0.07,4.7 -0.06,7.05 -2.35,-0.02 -4.69,-0.02 -7.03,0.01 0.07,-2.35 0.1,-4.7 0.1,-7.04 z"
     fill="#c5dca3"
     opacity="1"
     stroke="#c5dca3"
     stroke-width="0.25"
     id="path45" />
  <path
     d="m 154.01623,116.7407 c 4.26,-2.46 10.23,0.82 10.25,5.77 0.5,4.85 -5.01,9.06 -9.49,6.8 -5.45,-1.69 -5.91,-10.21 -0.76,-12.57 z"
     fill="#031000"
     opacity="1"
     stroke="#031000"
     stroke-width="0.25"
     id="path46" />
  <path
     d="m 2.1862306,125.0407 c 18.2300004,-5.78 37.6500004,-8.65 56.6800004,-5.65 25.15,3.24 48.529999,14.31 73.749999,17.17 19.03,2.21 38.17,-0.49 56.92,-3.71 18.44,-3.08 36.62,-7.59 55.12,-10.36 2.22,-0.36 4.45,-0.76 6.62,-1.39 0.34,-0.03 1.01,-0.08 1.35,-0.11 12.25,-1.12 24.68,-2.31 36.92,-0.39 0.36,12.35 0.38,24.7 0.16,37.05 -13.49,-2.8 -27.31,-1.53 -40.97,-1.8 -4.62,-0.21 -9.16,0.81 -13.43,2.5 -2.69,0.6 -5.39,1.13 -8.11,1.54 -7.16,-1.05 -13.96,1.74 -20.85,3.12 -13.44,2.79 -26.99,5.42 -40.73,6.15 -6.31,0.4 -12.61,-0.32 -18.93,-0.3 -6.06,-0.02 -11.93,-1.72 -17.92,-2.37 -6.38,-0.69 -12.56,-2.53 -18.96,-3.04 -18.599999,-2.87 -37.229999,-6.59 -56.139999,-6.14 -9.72,0.27 -19.57,-0.75 -29.15,1.31 0.33,-2.9 0.62,-5.79 0.85,-8.69 3.45,-1.01 7.33,-2.38 8.8,-6.01 3.42,-5.96 -1.66,-14.23 -8.46,-14.1 -6.4,-0.52 -11.82,6.58 -9.7,12.63 0.99,3.58 4.28,5.73 7.53,7.06 -0.27,3.63 -0.65,7.26 -0.99,10.89 -6.84,0.23 -13.4400004,2.05 -19.9600004,3.97 -0.67,-12.96 0.1,-25.95 -0.4,-38.92 z"
     fill="#d0e6b8"
     opacity="1"
     stroke="#d0e6b8"
     stroke-width="0.25"
     id="path47" />
  <path
     d="m 154.11623,119.0107 c 3.16,-3.07 8.85,0.25 8.2,4.42 -0.18,3.1 -3.65,5.53 -6.59,4.22 -3.6,-1.07 -4.67,-6.37 -1.61,-8.64 z"
     fill="#dceac8"
     opacity="1"
     stroke="#dceac8"
     stroke-width="0.25"
     id="path48" />
  <path
     d="m 154.01623,121.7307 c 0.84,-1.38 2.6,-1.86 3.84,-2.8 1.54,1.65 4.58,3.65 2.27,6.02 -1.07,2.33 -3.56,1.04 -5.46,0.82 -0.24,-1.34 -0.69,-2.67 -0.65,-4.04 z"
     fill="#cae2a3"
     opacity="1"
     stroke="#cae2a3"
     stroke-width="0.25"
     id="path49" />
  <path
     d="m 289.54623,120.6007 c 0.44,0.07 1.32,0.21 1.76,0.28 0.02,12.53 -0.1,25.06 0.07,37.58 -0.42,-0.2 -1.26,-0.61 -1.67,-0.81 0.22,-12.35 0.2,-24.7 -0.16,-37.05 z"
     fill="#e2f0d1"
     opacity="1"
     stroke="#e2f0d1"
     stroke-width="0.25"
     id="path50" />
  <path
     d="m 2.1862306,125.4507 c 0.5,12.97 -0.27,25.96 0.4,38.92 6.52,-1.92 13.1200004,-3.74 19.9600004,-3.97 -0.03,0.4 -0.1,1.2 -0.14,1.6 -6.82,1.04 -13.5800004,2.46 -20.3000004,4.05 0.16,12.11 -0.14,24.23 0.2,36.34 -0.53,0.02 -1.57999995,0.06 -2.10999995,0.09 0.38,-12.3 -0.09,-24.61 0.3,-36.9 1.88999995,-2.29 1.60999995,-5.33 1.65999995,-8.08 -0.07,-10.68 -0.1,-21.37 0.03,-32.05 z"
     fill="#6a9aad"
     opacity="1"
     stroke="#6a9aad"
     stroke-width="0.25"
     id="path51" />
  <path
     d="m 16.006231,142.4507 c -2.12,-6.05 3.3,-13.15 9.7,-12.63 6.8,-0.13 11.88,8.14 8.46,14.1 -1.47,3.63 -5.35,5 -8.8,6.01 -0.23,2.9 -0.52,5.79 -0.85,8.69 l -0.15,1.24 c -0.03,0.38 -0.1,1.14 -0.13,1.52 -0.3,4.26 -0.74,8.5 -1.09,12.75 2.42,1.8 5.44,3.88 5.31,7.3 0.62,5.06 -4.82,9.37 -9.63,7.77 -4.99,-1.02 -7.13,-7.71 -4.14,-11.67 1.44,-2.34 4.28,-2.87 6.69,-3.67 0.27,-3.96 0.69,-7.91 1.03,-11.86 0.04,-0.4 0.11,-1.2 0.14,-1.6 0.34,-3.63 0.72,-7.26 0.99,-10.89 -3.25,-1.33 -6.54,-3.48 -7.53,-7.06 z"
     fill="#000a0b"
     opacity="1"
     stroke="#000a0b"
     stroke-width="0.25"
     id="path52" />
  <path
     d="m 232.19623,130.9707 c 4.67,-4.25 12.52,-0.34 12.51,5.84 5.3,1.26 10.54,2.78 15.92,3.7 2.21,-1.91 4.91,-3.55 5.65,-6.6 0.53,-2.16 2.56,-3.09 4.38,-3.96 2.82,0.73 4.72,2.89 5.61,5.59 -0.81,1.83 -1.85,3.58 -3.48,4.8 -2.92,2.07 -2.64,7.55 -7.12,7.53 -3.49,0.48 -5.07,-2.91 -5.82,-5.68 -5.14,-1.06 -10.23,-2.31 -15.34,-3.49 -1.57,3.29 -4.78,6.22 -8.7,5.33 -6.01,-0.77 -8.55,-9.37 -3.61,-13.06 z"
     fill="#000c00"
     opacity="1"
     stroke="#000c00"
     stroke-width="0.25"
     id="path53" />
  <path
     d="m 23.126231,131.9907 c 6.4,-2.43 12.67,5.46 9.32,11.28 -2.38,5.69 -11.19,5.64 -13.91,0.28 -2.74,-4.2 -0.06,-10.2 4.59,-11.56 z"
     fill="#cbe3b3"
     opacity="1"
     stroke="#cbe3b3"
     stroke-width="0.25"
     id="path54" />
  <path
     d="m 52.856231,137.7607 c -0.34,-5.12 6.5,-8.13 10.05,-4.48 2.82,2.37 0.97,6.14 1.34,9.21 0.85,1.58 2.52,2.9 4.42,2.57 2.48,-0.04 3.32,-2.74 4.9,-4.21 1.64,1.92 -0.66,4.08 -2.19,5.16 -3.34,2.35 -8.47,-0.01 -9.01,-3.99 -0.41,-2.34 1.33,-4.91 -0.23,-6.99 -1.06,-1.64 -3.49,-1.75 -5.12,-1.06 -1.43,1.22 -2.66,2.65 -4.16,3.79 z"
     fill="#000900"
     opacity="1"
     stroke="#000900"
     stroke-width="0.25"
     id="path55" />
  <path
     d="m 234.12623,131.7907 c 3.36,-2.36 8.85,0.54 8.52,4.72 0.44,4.37 -5.18,7.3 -8.66,4.85 -3.47,-2.02 -3.39,-7.65 0.14,-9.57 z"
     fill="#c9e0af"
     opacity="1"
     stroke="#c9e0af"
     stroke-width="0.25"
     id="path56" />
  <path
     d="m 265.87623,138.7407 c 1.58,-2.4 2.13,-5.54 4.81,-7.08 1.32,1.05 3.19,1.87 3.39,3.79 -0.03,1.75 -1.74,2.62 -2.8,3.75 -2.12,1.79 -2.36,4.99 -4.58,6.69 -3.17,1.28 -5.37,-2.37 -4.32,-5.1 1.17,-0.66 2.45,-1.2 3.5,-2.05 z"
     fill="#c0daad"
     opacity="1"
     stroke="#c0daad"
     stroke-width="0.25"
     id="path57" />
  <path
     d="m 211.10623,147.0107 c 3.91,-3.19 10.34,0.45 9.51,5.47 0.1,4.8 -6.6,7.37 -9.94,4.13 -3.12,-2.34 -2.63,-7.43 0.43,-9.6 z"
     fill="#000900"
     opacity="1"
     stroke="#000900"
     stroke-width="0.25"
     id="path61" />
  <path
     d="m 213.07623,147.9507 c 3.24,-1.56 7.03,2.33 5.64,5.57 -0.92,3.31 -6.06,3.74 -7.65,0.75 -1.68,-2.08 -0.47,-5.53 2.01,-6.32 z"
     fill="#bddba8"
     opacity="1"
     stroke="#bddba8"
     stroke-width="0.25"
     id="path72" />
  <path
     d="m 235.30623,158.3507 c 4.27,-1.69 8.81,-2.71 13.43,-2.5 13.66,0.27 27.48,-1 40.97,1.8 0.41,0.2 1.25,0.61 1.67,0.81 0.01,0.63 0.04,1.9 0.06,2.53 -0.23,13.81 0.15,27.63 -0.23,41.44 -80.81,-0.27 -161.62,-0.06 -242.419999,-0.14 -15.49,0.06 -30.99,-0.07 -46.4800004,0.1 -0.34,-12.11 -0.04,-24.23 -0.2,-36.34 6.72,-1.59 13.4800004,-3.01 20.3000004,-4.05 -0.34,3.95 -0.76,7.9 -1.03,11.86 -2.41,0.8 -5.25,1.33 -6.69,3.67 -2.99,3.96 -0.85,10.65 4.14,11.67 4.81,1.6 10.25,-2.71 9.63,-7.77 0.13,-3.42 -2.89,-5.5 -5.31,-7.3 0.35,-4.25 0.79,-8.49 1.09,-12.75 11.13,-0.62 22.28,-2.02 33.43,-0.83 36.32,0.91 71.579999,12.95 108.049999,11.71 31.22,-0.78 60.78,-13.45 92.02,-13.98 11.1,-0.79 22.03,1.75 33.08,2.13 -2.77,-1.55 -5.85,-2.42 -9,-2.73 -15.45,-1.9 -31.11,-1.33 -46.51,0.67 z"
     fill="#bfe3ef"
     opacity="1"
     stroke="#bfe3ef"
     stroke-width="0.25"
     id="path77"
     style="fill:#ff9955" />
  <path
     d="m 235.30623,158.3507 c 15.4,-2 31.06,-2.57 46.51,-0.67 3.15,0.31 6.23,1.18 9,2.73 -11.05,-0.38 -21.98,-2.92 -33.08,-2.13 -31.24,0.53 -60.8,13.2 -92.02,13.98 -36.47,1.24 -71.729999,-10.8 -108.049999,-11.71 -11.15,-1.19 -22.3,0.21 -33.43,0.83 0.03,-0.38 0.1,-1.14 0.13,-1.52 17.4,-2.23 35.04,-1.79 52.43,0.19 16.33,2.28 32.629999,4.81 48.879999,7.64 17.5,2.75 35.39,4.26 53.03,1.81 16.34,-2.21 32.41,-6.02 48.49,-9.61 2.72,-0.41 5.42,-0.94 8.11,-1.54 z"
     fill="#6a9aad"
     opacity="1"
     stroke="#6a9aad"
     stroke-width="0.25"
     id="path78" />
  <path
     d="m 24.516231,158.6207 c 9.58,-2.06 19.43,-1.04 29.15,-1.31 18.91,-0.45 37.54,3.27 56.139999,6.14 6.4,0.51 12.58,2.35 18.96,3.04 5.99,0.65 11.86,2.35 17.92,2.37 6.32,-0.02 12.62,0.7 18.93,0.3 13.74,-0.73 27.29,-3.36 40.73,-6.15 6.89,-1.38 13.69,-4.17 20.85,-3.12 -16.08,3.59 -32.15,7.4 -48.49,9.61 -17.64,2.45 -35.53,0.94 -53.03,-1.81 -16.25,-2.83 -32.549999,-5.36 -48.879999,-7.64 -17.39,-1.98 -35.03,-2.42 -52.43,-0.19 z"
     fill="#bee3cc"
     opacity="1"
     stroke="#bee3cc"
     stroke-width="0.25"
     id="path79" />
  <path
     d="m 291.43623,160.9907 1.44,-1.71 c 0.73,14.4 -0.15,28.85 0.43,43.26 -0.52,-0.03 -1.58,-0.08 -2.1,-0.11 0.38,-13.81 0,-27.63 0.23,-41.44 z"
     fill="#6791a3"
     opacity="1"
     stroke="#6791a3"
     stroke-width="0.25"
     id="path80" />
  <path
     d="m 257.17623,162.2207 c 4.22,-2.81 10.58,0.18 11.2,5.18 1.34,5.54 -4.87,10.85 -10.13,8.44 -5.7,-1.96 -6.38,-10.77 -1.07,-13.62 z"
     fill="#000900"
     opacity="1"
     stroke="#000900"
     stroke-width="0.25"
     id="path81" />
  <path
     d="m 258.09623,163.8807 c 3.41,-2.43 8.73,0.38 8.55,4.59 0.61,4.53 -5.33,7.99 -8.9,5.04 -3.35,-2.15 -3.12,-7.71 0.35,-9.63 z"
     fill="#f9e88c"
     opacity="1"
     stroke="#f9e88c"
     stroke-width="0.25"
     id="path82" />
  <path
     d="m 42.956231,175.9707 c -0.47,-3.58 -0.6,-7.22 0.11,-10.77 3.38,0.07 6.77,0.02 10.13,0.42 0.04,3.47 0.07,6.94 0.01,10.41 -3.42,0.01 -6.83,-0.03 -10.25,-0.06 z"
     fill="#00090f"
     opacity="1"
     stroke="#00090f"
     stroke-width="0.25"
     id="path83" />
  <path
     d="m 44.546231,167.2707 c 2.28,-0.27 4.59,-0.17 6.89,-0.21 0.01,2.37 0.02,4.75 0,7.13 -2.35,-0.03 -4.7,-0.05 -7.05,-0.11 0.05,-2.27 0.01,-4.55 0.16,-6.81 z"
     fill="#c3e3e9"
     opacity="1"
     stroke="#c3e3e9"
     stroke-width="0.25"
     id="path84" />
  <path
     d="m 219.89623,171.7107 c 5.18,-1.8 10.7,3.67 9.4,8.9 -0.8,5.68 -8.74,8.2 -12.64,3.97 -4.16,-3.79 -2.4,-11.65 3.24,-12.87 z"
     fill="#000900"
     opacity="1"
     stroke="#000900"
     stroke-width="0.25"
     id="path85" />
  <path
     d="m 219.80623,173.6507 c 3.79,-1.87 8.41,1.87 7.75,5.95 0.05,4.65 -6.43,7.05 -9.53,3.66 -3.16,-2.68 -1.96,-8.12 1.78,-9.61 z"
     fill="#dceac8"
     opacity="1"
     stroke="#dceac8"
     stroke-width="0.25"
     id="path86" />
  <path
     d="m 219.94623,175.5307 c 2.5,-1.43 7.05,0.82 6.23,3.99 -0.03,4.49 -7.5,5.05 -8.41,0.8 -1.32,-1.95 0.61,-3.8 2.18,-4.79 z"
     fill="#fbe990"
     opacity="1"
     stroke="#fbe990"
     stroke-width="0.25"
     id="path87" />
  <path
     d="m 245.65512,96.977696 c 2.5,-1.43 7.05,0.82 6.23,3.990004 -0.03,4.49 -7.5,5.05 -8.41,0.8 -1.32,-1.950004 0.61,-3.800004 2.18,-4.790004 z"
     fill="#fbe990"
     opacity="1"
     stroke="#fbe990"
     stroke-width="0.25"
     id="path87-9" />
  <path
     d="m 18.116231,176.8407 c 3.46,-2.38 8.63,0.58 8.53,4.72 0.59,4.63 -5.39,7.98 -9.03,5.09 -3.61,-2.2 -3.12,-7.89 0.5,-9.81 z"
     fill="#e5e0a4"
     opacity="1"
     stroke="#e5e0a4"
     stroke-width="0.25"
     id="path88" />
  <path
     d="m 20.016231,177.9307 c 2.01,-0.52 4.11,0.77 4.85,2.66 0.06,2.29 -1.2,5.47 -3.86,5.53 -1.81,-0.6 -3.57,-1.83 -4.27,-3.67 -0.07,-1.96 1.28,-4.09 3.28,-4.52 z"
     fill="#fcee8c"
     opacity="1"
     stroke="#fcee8c"
     stroke-width="0.25"
     id="path89" />
  <path
     d="m 247.19623,178.2007 c 5.22,-3.14 12.34,2.36 11.04,8.19 -0.67,5.79 -8.65,8.41 -12.68,4.29 -4.04,-3.33 -3.05,-10.24 1.64,-12.48 z"
     fill="#00090f"
     opacity="1"
     stroke="#00090f"
     stroke-width="0.25"
     id="path90" />
  <path
     d="m 248.00623,179.8407 c 2.99,-1.6 7.24,-0.12 8.14,3.27 1.87,4.31 -3.01,9.25 -7.35,7.41 -4.8,-1.15 -5.33,-8.85 -0.79,-10.68 z"
     fill="#9c97c6"
     opacity="1"
     stroke="#9c97c6"
     stroke-width="0.25"
     id="path94" />
  <path
     d="m 272.91623,179.7307 c 4.1,-1.32 8.46,2.64 7.55,6.84 -0.35,5.3 -8.54,6.67 -11.07,2.27 -2.3,-3.14 -0.42,-8.51 3.52,-9.11 z"
     fill="#000900"
     opacity="1"
     stroke="#000900"
     stroke-width="0.25"
     id="path95" />
  <path
     d="m 272.83623,181.6107 c 2.56,-1.4 6.19,0.91 5.86,3.88 0.49,3.45 -4.02,5.59 -6.63,3.56 -2.86,-1.7 -2.27,-6.3 0.77,-7.44 z"
     fill="#c2dfac"
     opacity="1"
     stroke="#c2dfac"
     stroke-width="0.25"
     id="path96" />
  <path
     d="m 0.19623065,202.4807 c 0.53,-0.03 1.57999995,-0.07 2.10999995,-0.09 15.4900004,-0.17 30.9900004,-0.04 46.4800004,-0.1 80.799999,0.08 161.609999,-0.13 242.419999,0.14 0.52,0.03 1.58,0.08 2.1,0.11 l -0.76,1.4 c -6.28,0.47 -12.6,0.08 -18.9,0.24 3.66,1.95 7.65,3.21 11.24,5.3 l -0.48,1.51 c -7.13,-2.51 -13.71,-7.65 -21.62,-6.93 -75.04,0.14 -150.08,0 -225.119999,0.06 -5.52,0.16 -11.4,-0.91 -16.55,1.66 l -1.31,-0.88 c -0.25,-0.18 -0.75,-0.53 -1,-0.71 -5.96,-0.13 -11.9300004,0.21 -17.87000035,-0.22 z"
     fill="#000a0b"
     opacity="1"
     stroke="#000a0b"
     stroke-width="0.25"
     id="path113" />
  <path
     d="m 21.116231,205.7807 c 5.15,-2.57 11.03,-1.5 16.55,-1.66 75.039999,-0.06 150.079999,0.08 225.119999,-0.06 7.91,-0.72 14.49,4.42 21.62,6.93 0.71,0.33 2.13,0.97 2.83,1.3 -4.5,0.52 -9.04,0.47 -13.56,0.39 -32.01,-0.04 -64.01,0.02 -96.01,0 -2.41,3.86 -3.66,8.59 -6.89,11.84 -16.01,0.37 -32.05,-0.03 -48.08,0.18 -2.85,-0.05 -5.78,0.25 -8.57,-0.49 -2.66,-3.54 -4.25,-7.74 -6.36,-11.61 -25.689999,0.17 -51.389999,0.02 -77.079999,0.05 -7.94,-0.12 -15.88,0.35 -23.8000004,-0.15 4.5700004,-2.61 9.5000004,-4.46 14.2300004,-6.72 z"
     fill="#9f9e9e"
     opacity="1"
     stroke="#9f9e9e"
     stroke-width="0.25"
     id="path114" />
  <path
     id="path115"
     d="m 19.794101,204.88716 c -6.7107,1.35462 -12.8716804,4.34022 -19.42236035,6.22559 -0.12,6.67009 -0.0208,13.34847 -0.0908,20.01856 -0.0223,0.004 -0.0448,0.007 -0.0674,0.0102 0.0219,0.0636 0.0379,0.12977 0.0483,0.19629 0.01,0.10291 0.01,0.20573 0.009,0.30908 -7e-5,0.0956 4.8e-4,0.19151 0,0.28711 -0.001,0.0796 -0.001,0.15917 -0.004,0.23877 -0.004,0.0878 -0.007,0.17581 -0.0249,0.26221 -0.0107,0.0444 -0.024,0.0875 -0.0425,0.12597 0.004,0.0414 0.009,0.0816 0.0117,0.12305 0.0277,1.8e-4 0.0544,0.001 0.082,0.001 0.06,20.78661 0.009,41.56446 0.0688,62.35108 97.61014035,0.0396 195.22090935,-0.0729 292.83105935,0.0381 0.07,-27.94786 -0.0992,-55.90273 0.0908,-83.85058 -2.76029,-0.96645 -5.48982,-2.01312 -8.37012,-2.72608 l -0.48047,1.19678 c 0.71007,0.26142 2.13001,0.76837 2.83008,1.02979 -4.50046,0.41193 -9.04105,0.37248 -13.56152,0.30908 -32.01332,-0.0317 -64.01719,0.0159 -96.02051,0 -2.41025,3.05779 -3.66029,6.80483 -6.89063,9.37939 -16.01166,0.2931 -32.0533,-0.0243 -48.08496,0.14209 -2.8503,-0.0396 -5.78051,0.19802 -8.5708,-0.38818 -2.66027,-2.80429 -4.25013,-6.13058 -6.36035,-9.19629 -25.692669,0.1347 -51.394729,0.017 -77.087399,0.041 -7.94083,-0.095 -15.88142,0.27743 -23.8022504,-0.11866 4.5704804,-2.06757 9.5004704,-3.53439 14.2309604,-5.3247 z m 5.18115,29.05372 -0.004,0.003 c 0.11911,-0.009 0.23273,0.0394 0.34717,0.0688 0.12081,0.0335 0.2403,0.0682 0.36621,0.0762 0.22936,0.0245 0.45659,0.0593 0.68262,0.10546 0.32983,0.0672 0.65408,0.16285 0.96093,0.30323 0.17415,0.0812 0.24143,0.10894 0.41016,0.20654 0.27421,0.15869 0.53092,0.34921 0.76611,0.56103 0.35993,0.31807 0.73863,0.61146 1.13379,0.88477 0.52071,0.39255 1.03926,0.80451 1.44727,1.31689 0.19816,0.0359 0.40094,0.0819 0.51416,0.26368 0.0564,0.0906 0.056,0.20743 0.0835,0.31054 -0.004,0.008 -0.009,0.0246 -0.0117,0.044 0.0252,0.005 0.0448,0.0266 0.0674,0.0395 0.0352,0.0208 0.0817,0.0452 0.1333,0.0718 0.0787,-0.0349 0.15386,-0.0637 0.20801,-0.0747 0.11644,-0.0242 0.23733,-0.0135 0.35595,-0.0205 0.11036,0.0692 0.25406,0.10145 0.33106,0.20655 0.23623,0.32249 0.0193,0.67126 -0.12451,0.96093 -0.20266,0.37087 -0.41946,0.73533 -0.64014,1.09571 -0.0563,0.082 -0.10896,0.16639 -0.16846,0.24609 -0.37442,0.50143 -0.85125,0.91087 -1.39892,1.21289 -0.12635,0.0575 -0.25027,0.12195 -0.3794,0.17285 -0.12206,0.0481 -0.24805,0.0848 -0.37353,0.12305 -0.58654,0.17919 -1.18951,0.30397 -1.79444,0.40137 -0.11732,0.0202 -0.23146,0.039 -0.34424,0.0586 -0.0802,0.043 -0.15981,0.0863 -0.24023,0.12891 -0.0695,0.0369 -0.50219,0.26381 -0.59619,0.30761 -0.0746,0.0348 -0.15252,0.0635 -0.22852,0.0952 -0.0733,0.0141 -0.15912,0.0847 -0.21972,0.041 -0.0176,-0.0127 -0.0347,-0.025 -0.0527,-0.0381 -0.098,0.0876 -0.208,0.18182 -0.30615,0.24756 -0.05,0.0335 -0.10414,0.0588 -0.15674,0.0879 -0.0148,-0.016 -0.0313,-0.0329 -0.0469,-0.0483 -0.0732,0.0797 -0.14718,0.15834 -0.22998,0.22851 -0.10108,0.0799 -0.32407,0.26494 -0.46436,0.23584 -0.14625,-0.0303 -0.32216,-0.0652 -0.40576,-0.18896 -0.18475,-0.27348 -0.0869,-0.39255 0.019,-0.56836 0.0307,-0.0385 0.0625,-0.0762 0.0952,-0.11279 l -0.001,-0.001 c -0.14683,-0.25829 -0.23556,-0.34414 -0.22705,-0.4043 -0.005,-0.009 -0.012,-0.0175 -0.0176,-0.0264 v -0.001 -0.001 -10e-4 l 0.001,-0.001 h 10e-4 c 0.01,-0.006 0.0331,-0.009 0.0439,-0.0146 0.005,-0.002 0.0101,-0.005 0.0146,-0.007 0.0385,-0.0288 0.10349,-0.0636 0.19775,-0.12011 0.25459,-0.15322 0.50232,-0.31711 0.74854,-0.4834 0.0178,-0.022 0.0361,-0.0433 0.0542,-0.0659 0.0868,-0.10877 0.4692,-0.56991 0.542,-0.65771 0.13284,-0.15547 0.26523,-0.31165 0.3999,-0.46582 -0.066,-0.0366 -0.13096,-0.0753 -0.22412,-0.13038 -0.24768,-0.14451 -0.42761,-0.36738 -0.63135,-0.5625 -0.0147,-0.0111 -0.0279,-0.0247 -0.0439,-0.0337 -0.008,-0.005 -0.0188,-0.006 -0.0278,-0.009 -0.0248,-0.009 -0.0499,-0.016 -0.0747,-0.0234 -0.0885,0.0131 -0.1784,0.0194 -0.26807,0.0234 0.008,0.13494 -0.13603,0.0792 -0.29297,0.0205 -0.0417,-0.003 -0.0842,-0.007 -0.12598,-0.0102 -0.006,0.007 -0.0127,0.0161 -0.019,0.0234 -0.0914,0.10442 -0.27737,-0.008 -0.41601,-0.0132 -0.41168,-0.016 -0.82232,-0.0427 -1.2334,-0.0688 -0.6243,-0.005 -1.24956,0.002 -1.87354,0.001 7e-4,0.0191 0.002,0.0382 0.003,0.0571 3e-5,5e-4 -10e-6,0.004 0,0.004 v 0.001 h -0.001 v 0.001 0.001 h -10e-4 v 0.001 h -0.001 v 0.001 h -0.001 -10e-4 -0.001 c -0.0253,0.003 -0.0801,-0.0201 -0.10986,-0.0205 -0.005,-7e-5 -0.0101,7e-5 -0.0146,0 v 0.001 l -0.001,0.001 v 0.001 0.001 h -10e-4 c -0.0582,0.1003 -0.23374,0.001 -0.3501,0.001 l -0.42187,0.003 c -0.10519,-7.3e-4 -0.20976,-9.3e-4 -0.31494,-0.003 -0.0635,0.0114 -0.12388,0.0139 -0.17432,-0.004 -0.13691,-0.003 -0.27731,-0.004 -0.38965,-0.0249 -0.2544,-0.004 -0.50987,-0.007 -0.76025,-0.0132 -0.19199,-0.004 -0.38407,-0.003 -0.57568,-0.0161 -0.17357,-0.0116 -0.43836,0.0972 -0.51856,-0.0571 -0.0167,-0.0322 -0.0322,-0.0625 -0.0469,-0.0923 -0.29494,0.0607 -0.78325,0.11089 -0.95215,0.13183 -0.2421,0.0165 -0.48413,0.0397 -0.72657,0.0498 -0.53464,0.0224 -1.14931,0.0249 -1.68164,-0.0205 -0.11693,-0.01 -0.32241,-0.0304 -0.54931,-0.063 -5.9e-4,0.0318 -0.003,0.0652 -0.007,0.10107 -0.0454,0.34542 -0.43104,0.33197 -0.65185,0.34717 -0.0289,0.001 -0.0575,0.002 -0.0864,0.003 -0.0787,0.0188 -0.16943,0.0276 -0.27099,0.0249 -0.24815,-0.007 -0.12808,-0.003 -0.35889,-0.009 v -0.001 -0.001 -10e-4 c -0.0205,3.5e-4 -0.041,10e-4 -0.0615,10e-4 l -10e-4,0.001 h -0.001 l -10e-4,0.001 h -10e-4 -0.001 c -0.002,-3.3e-4 -0.006,-0.001 -0.007,-0.001 h -10e-4 v -0.001 c 0.005,-10e-5 0.0112,9e-5 0.0161,0 0.008,-0.0791 0.014,-0.15806 0.0205,-0.23731 -0.005,-0.0259 -0.01,-0.0517 -0.0146,-0.0776 -0.031,-0.0323 -0.0527,-0.0753 -0.0674,-0.13476 -0.10567,0.049 -0.23259,0.0859 -0.36181,0.13183 -0.11081,0.0309 -0.22069,0.0668 -0.33252,0.0937 -0.39947,0.0962 -0.81285,0.15535 -1.22461,0.15235 -0.13268,-8e-4 -0.2755504,0.0286 -0.3969804,-0.0249 -0.0205,-0.009 -0.0405,-0.0187 -0.0601,-0.0293 -0.0272,0.004 -0.0547,0.007 -0.082,0.0102 -0.36428,0.0435 -0.71532,0.0591 -1.08252,0.0439 -0.19482,-0.008 -0.39111,-0.0137 -0.583,-0.0483 -0.20311,-0.0367 -0.44419,-0.0235 -0.60498,-0.14795 -0.16564,0.022 -0.33122,0.0323 -0.49659,0.0293 -0.097,-0.002 -0.19597,-0.002 -0.29296,-0.0117 -0.1672,0.0799 -0.34623,0.13448 -0.53028,0.15527 -0.16366,0.0185 -0.33136,0.0266 -0.49365,-10e-4 -0.17164,-0.0297 -0.3304,-0.11333 -0.49512,-0.16993 -0.11227,7.1e-4 -0.22464,0.001 -0.33691,0.001 -0.1903,0.008 -0.38093,0.0179 -0.57129,0.0249 -0.17411,0.007 -0.34873,0.01 -0.52295,0.0117 -0.12539,-5e-4 -0.25063,0.002 -0.375,0.019 -0.0282,0.004 -0.0567,0.009 -0.085,0.0132 -0.0115,0.0236 -0.0248,0.0454 -0.0396,0.063 -0.16147,0.19225 -0.30881,0.32329 -0.61377,0.19629 -0.12065,-0.0503 -0.16892,-0.20059 -0.25342,-0.30029 -0.009,-0.0557 -0.0214,-0.11069 -0.0264,-0.16699 -7e-5,-9.2e-4 7e-5,-0.002 0,-0.003 -0.003,-0.004 -0.007,-0.008 -0.0102,-0.0117 -0.0973,-0.11816 -0.13616,-0.28121 -0.16406,-0.42773 -0.0239,-0.12785 -0.0255,-0.25759 -0.0147,-0.38672 0.006,-0.0953 0.0185,-0.18948 0.0308,-0.28418 0.0116,-0.10435 0.0182,-0.2092 0.0308,-0.31348 0.0138,-0.10802 0.0214,-0.21648 0.0264,-0.32519 0.002,-0.24342 0.0691,-0.40225 0.25635,-0.53174 0.009,-0.0241 0.0197,-0.0471 0.0308,-0.0703 0.0268,-0.0564 0.032,-0.13629 0.0864,-0.16699 0.15656,-0.0883 0.34077,-0.11438 0.51123,-0.17138 0.0615,0.0799 0.1265,0.15802 0.18896,0.2373 0.21021,-0.006 0.42127,0.001 0.63135,0.0117 0.3398,0.0128 0.67813,0.0485 1.0166,0.0791 0.0648,0.005 0.12864,0.01 0.19336,0.0161 0.13008,-0.0495 0.26085,-0.13085 0.38818,-0.0908 0.10112,0.0318 0.19273,0.0904 0.27393,0.1626 0.0368,0.004 0.073,0.009 0.10986,0.0132 0.45282,0.0447 0.90656,0.074 1.36084,0.0996 0.46152,0.0224 0.92395,0.0484 1.38574,0.0645 0.42144,0.0132 0.84254,0.019 1.26416,0.022 0.4911204,0.003 0.9825204,0.004 1.4736404,0.004 0.29151,0.009 0.58575,-0.018 0.87597,0.0205 0.0532,0.007 0.10671,0.0142 0.15821,0.0293 0.0576,0.0169 0.11109,0.0439 0.16699,0.0659 8.9e-4,0.001 0.002,0.002 0.003,0.003 0.3861,-0.26154 0.86544,-0.34862 1.33008,-0.29883 0.17557,0.0189 0.34491,0.0781 0.51709,0.11719 0.0418,0.0542 0.0897,0.10594 0.13769,0.15673 0.0727,-0.0682 0.14777,-0.13683 0.19776,-0.20947 0.34052,-0.0175 0.68005,-0.0138 1.02099,-0.006 0.55607,0.0133 1.11225,0.0363 1.66553,0.0967 0.38763,0.0518 0.70653,0.0833 1.07519,0.16846 0.0817,-0.0438 0.22592,-0.0398 0.45704,-0.0659 0.13816,-0.006 0.27632,-0.0136 0.41455,-0.0176 0.2112,-0.006 0.554,-0.0143 0.77197,0 0.0525,0.003 0.15227,-0.0261 0.15527,0.0264 10e-4,0.0168 0.002,0.0322 0.003,0.0483 0.11373,0.023 0.22917,0.05 0.33692,0.0527 0.39044,0.0105 0.78,0.0239 1.17041,0.0352 1.81798,0.0534 3.63702,0.0899 5.45507,0.14063 0.0368,-2e-4 0.0731,1.8e-4 0.10987,0 -0.0235,-0.0133 -0.0446,-0.0322 -0.0674,-0.0469 -0.1237,-0.0799 -0.24364,-0.16421 -0.35742,-0.25781 -0.10808,-0.09 -0.2171,-0.17971 -0.33105,-0.26221 -0.19001,-0.14328 -0.37758,-0.29152 -0.53906,-0.46728 -0.218,-0.2378 -0.41175,-0.49535 -0.57129,-0.77637 -0.13225,-0.23171 -0.26176,-0.46619 -0.36328,-0.71338 -0.0735,-0.14498 -0.15754,-0.28269 -0.26514,-0.40576 -0.15164,-0.19659 -0.3367,-0.44014 -0.375,-0.69141 -0.012,-0.0775 -0.001,-0.15597 -0.001,-0.23437 0.022,-0.063 0.0237,-0.13727 0.0659,-0.18897 0.0786,-0.0963 0.17063,-0.1912 0.28418,-0.2417 0.0413,-0.0184 0.0819,-0.0264 0.12158,-0.0293 z m 0.0952,4.97461 v 0.001 c 0.002,-5e-5 0.004,5e-5 0.006,0 l -10e-4,-0.001 h -0.001 z" />
  <path
     d="m 2.1062306,214.8007 c 8.8700004,-0.6 17.7600004,-0.22 26.6300004,-0.23 25.95,0.09 51.92,-0.31 77.849999,0.22 2.63,3.46 3.75,7.82 6.33,11.32 5.21,0.9 10.58,0.15 15.86,0.39 14.56,-0.22 29.17,0.34 43.71,-0.34 2.53,-3.61 4.04,-7.82 6.29,-11.61 31.33,0.02 62.67,-0.04 94,-0.03 6.19,-0.07 12.39,-0.35 18.58,0.1 0.02,20.23 -0.08,40.46 0.05,60.69 -54.25,0.19 -108.51,-0.01 -162.76,0.08 -42.189999,-0.11 -84.379999,0.19 -126.5599994,-0.14 0.14,-11.76 0.02,-23.53 0.07,-35.29 8.4500004,0.03 16.8900004,0.02 25.3400004,-0.12 -1.07,1.24 -2.12,2.48 -3.11,3.79 3.22,-0.75 5.83,-2.8 8.21,-4.97 -2.53,-1.8 -5.19,-3.49 -8.21,-4.29 0.93,1.42 2.05,2.71 3.23,3.94 -8.49,-0.16 -16.99,-0.1 -25.4900004,-0.15 -0.03,-7.79 0.06,-15.58 -0.02,-23.36 z"
     fill="#666666"
     opacity="1"
     stroke="#666666"
     stroke-width="0.25"
     id="path116"
     style="fill:#666666;fill-opacity:1" />
  <path
     d="m 1.1372206,277.1663 c 96.7137604,0.0308 193.4375694,0.0501 290.1513394,-0.0193 0.15074,5.07132 -0.01,10.14262 0.10049,15.21394 -52.12534,0.14643 -104.27078,0.0154 -156.40617,0.0655 -44.166359,0.027 -88.342759,-0.0655 -132.5091094,0.0694 -0.1206,-3.2794 -0.1005,-6.55494 -0.1005,-9.83433 -0.01,-1.83816 0.61301,-3.74568 -1.23605,-5.49521 z"
     fill="#f2ada1"
     opacity="1"
     stroke="#f2ada1"
     stroke-width="0.250563"
     id="path124" />
  <path
     d="m 2.4736206,277.24213 c 1.95332,1.5467 1.29514,3.23307 1.30575,4.85812 0,2.8992 -0.0212,5.795 0.10616,8.6942 l -1.50745,-0.22485 c -0.22294,-4.43568 -0.3291,-8.88839 0.0955,-13.32747 z"
     fill="#f2c3bb"
     opacity="1"
     stroke="#f2c3bb"
     stroke-width="0.25"
     id="path125" />
  <path
     style="fill:#ffffff;fill-opacity:1;stroke-width:0.75"
     d="m 274.34577,90.817466 c 0.51153,-0.0464 0.98037,0.0548 1.48071,0.0548"
     id="path166" />
  <rect
     style="fill:#c6dea0;fill-opacity:1;stroke-width:0.75"
     id="rect166"
     width="4.9906063"
     height="9.1585245"
     x="272.53598"
     y="85.113953"
     ry="0.87746358" />
  <text
     xml:space="preserve"
     transform="matrix(0.75,0,0,0.75,-113.27377,-107.4893)"
     id="text172"
     style="font-size:13.3333px;writing-mode:lr-tb;direction:ltr;white-space:pre;shape-inside:url(#rect172);display:inline;fill:#000000;fill-opacity:1" />
  <text
     xml:space="preserve"
     style="font-size:20px;writing-mode:lr-tb;direction:ltr;fill:#000000;fill-opacity:1;stroke-width:0.75"
     x="98.768608"
     y="50.883224"
     id="text173"><tspan
       sodipodi:role="line"
       id="tspan173"
       style="font-size:20px;stroke-width:0.75"
       x="98.768608"
       y="50.883224">-</tspan></text>
  <text
     xml:space="preserve"
     style="font-size:20px;writing-mode:lr-tb;direction:ltr;fill:#000000;fill-opacity:1;stroke-width:0.75"
     x="14.342052"
     y="107.75258"
     id="text173-9"><tspan
       sodipodi:role="line"
       id="tspan173-4"
       style="font-size:20px;stroke-width:0.75"
       x="14.342052"
       y="107.75258">-</tspan></text>
  <text
     xml:space="preserve"
     style="font-size:20px;writing-mode:lr-tb;direction:ltr;fill:#000000;fill-opacity:1;stroke-width:0.75"
     x="211.43622"
     y="103.57776"
     id="text173-8"><tspan
       sodipodi:role="line"
       id="tspan173-2"
       style="font-size:20px;stroke-width:0.75"
       x="211.43622"
       y="103.57776">-</tspan></text>
  <text
     xml:space="preserve"
     style="font-size:20px;writing-mode:lr-tb;direction:ltr;fill:#000000;fill-opacity:1;stroke-width:0.75"
     x="216.9111"
     y="185.78148"
     id="text173-8-5"><tspan
       sodipodi:role="line"
       id="tspan173-2-5"
       style="font-size:20px;stroke-width:0.75"
       x="216.9111"
       y="185.78148">-</tspan></text>
  <text
     xml:space="preserve"
     style="font-size:20px;writing-mode:lr-tb;direction:ltr;fill:#000000;fill-opacity:1;stroke-width:0.75"
     x="242.92096"
     y="107.14809"
     id="text173-8-5-4"><tspan
       sodipodi:role="line"
       id="tspan173-2-5-3"
       style="font-size:20px;stroke-width:0.75"
       x="242.92096"
       y="107.14809">-</tspan></text>
  <text
     xml:space="preserve"
     style="font-size:20px;writing-mode:lr-tb;direction:ltr;fill:#000000;fill-opacity:1;stroke-width:0.75"
     x="256.5867"
     y="175.55052"
     id="text173-8-7"><tspan
       sodipodi:role="line"
       id="tspan173-2-1"
       style="font-size:20px;stroke-width:0.75"
       x="256.5867"
       y="175.55052">-</tspan></text>
  <text
     xml:space="preserve"
     style="font-size:20px;writing-mode:lr-tb;direction:ltr;fill:#000000;fill-opacity:1;stroke-width:0.75"
     x="16.772099"
     y="188.29054"
     id="text173-8-52"><tspan
       sodipodi:role="line"
       id="tspan173-2-7"
       style="font-size:20px;stroke-width:0.75"
       x="16.772099"
       y="188.29054">-</tspan></text>
  <text
     xml:space="preserve"
     style="font-size:20px;writing-mode:lr-tb;direction:ltr;fill:#000000;fill-opacity:1;stroke-width:0.75"
     x="17.232105"
     y="188.50679"
     id="text173-8-52-2"><tspan
       sodipodi:role="line"
       id="tspan173-2-7-3"
       style="font-size:20px;stroke-width:0.75"
       x="17.232105"
       y="188.50679">-</tspan></text>
  <path
     d="m 19.564511,133.81287 c 2.02724,-2.98278 6.05448,-3.06602 9.14294,-2.05327 3.22452,1.13763 4.10887,4.82795 5.3878,7.64426 -1.25171,4.09266 -4.1633,8.60153 -8.97967,8.06047 -6.5851,0.2081 -10.14975,-9.05936 -5.55107,-13.65146 z"
     fill="#9f97c2"
     opacity="1"
     stroke="#9f97c2"
     stroke-width="0.343471"
     id="path44-1" />
  <path
     d="m 133.6437,101.52536 c 1.47169,-2.094224 4.39531,-2.152664 6.6374,-1.44162 2.34088,0.79875 2.98289,3.38973 3.91133,5.36707 -0.90868,2.87347 -3.02239,6.03917 -6.51888,5.65928 -4.78051,0.14611 -7.36832,-6.3606 -4.02985,-9.58473 z"
     fill="#9f97c2"
     opacity="1"
     stroke="#9f97c2"
     stroke-width="0.245216"
     id="path44-1-6" />
  <path
     d="m 152.92762,119.32357 c 1.43503,-1.98265 4.28582,-2.03798 6.47206,-1.36482 2.28257,0.7562 2.90858,3.20914 3.8139,5.08114 -0.88605,2.72039 -2.9471,5.71743 -6.35649,5.35778 -4.66143,0.13833 -7.18477,-6.02174 -3.92947,-9.0741 z"
     fill="#9f97c2"
     opacity="1"
     stroke="#9f97c2"
     stroke-width="0.235604"
     id="path44-1-6-8" />
  <path
     d="m 232.86804,132.77575 c 1.43503,-1.98265 4.28582,-2.03798 6.47206,-1.36482 2.28257,0.7562 2.90858,3.20914 3.8139,5.08114 -0.88605,2.72039 -2.9471,5.71743 -6.35649,5.35778 -4.66143,0.13833 -7.18477,-6.02174 -3.92947,-9.0741 z"
     fill="#9f97c2"
     opacity="1"
     stroke="#9f97c2"
     stroke-width="0.235604"
     id="path44-1-6-8-2" />
  <text
     xml:space="preserve"
     style="font-size:20px;writing-mode:lr-tb;direction:ltr;fill:#000000;fill-opacity:1;stroke-width:0.75"
     x="17.207981"
     y="145.91936"
     id="text174"><tspan
       sodipodi:role="line"
       id="tspan174"
       style="stroke-width:0.75"
       x="17.207981"
       y="145.91936">+</tspan></text>
  <text
     xml:space="preserve"
     style="font-size:14px;writing-mode:lr-tb;direction:ltr;fill:#000000;fill-opacity:1;stroke-width:0.75"
     x="114.57574"
     y="123.87761"
     id="text175"><tspan
       sodipodi:role="line"
       id="tspan175"
       style="font-style:normal;font-variant:normal;font-weight:bold;font-stretch:normal;font-size:14px;font-family:Arial;-inkscape-font-specification:'Arial Bold';stroke-width:0.75"
       x="114.57574"
       y="123.87761">+</tspan></text>
  <text
     xml:space="preserve"
     style="font-size:14px;writing-mode:lr-tb;direction:ltr;fill:#000000;fill-opacity:1;stroke-width:0.75"
     x="133.52739"
     y="110.17043"
     id="text175-23"><tspan
       sodipodi:role="line"
       id="tspan175-3"
       style="font-style:normal;font-variant:normal;font-weight:bold;font-stretch:normal;font-size:14px;font-family:Arial;-inkscape-font-specification:'Arial Bold';stroke-width:0.75"
       x="133.52739"
       y="110.17043">+</tspan></text>
  <text
     xml:space="preserve"
     style="font-size:14px;writing-mode:lr-tb;direction:ltr;fill:#000000;fill-opacity:1;stroke-width:0.75"
     x="153.36279"
     y="128.26068"
     id="text175-23-1"><tspan
       sodipodi:role="line"
       id="tspan175-3-1"
       style="font-style:normal;font-variant:normal;font-weight:bold;font-stretch:normal;font-size:14px;font-family:Arial;-inkscape-font-specification:'Arial Bold';stroke-width:0.75"
       x="153.36279"
       y="128.26068">+</tspan></text>
  <text
     xml:space="preserve"
     style="font-size:14px;writing-mode:lr-tb;direction:ltr;fill:#000000;fill-opacity:1;stroke-width:0.75"
     x="267.93549"
     y="107.32617"
     id="text175-2"><tspan
       sodipodi:role="line"
       id="tspan175-1"
       style="font-style:normal;font-variant:normal;font-weight:bold;font-stretch:normal;font-size:14px;font-family:Arial;-inkscape-font-specification:'Arial Bold';stroke-width:0.75"
       x="267.93549"
       y="107.32617">+</tspan></text>
  <text
     xml:space="preserve"
     style="font-size:14px;writing-mode:lr-tb;direction:ltr;fill:#000000;fill-opacity:1;stroke-width:0.75"
     x="246.27478"
     y="189.91914"
     id="text175-8"><tspan
       sodipodi:role="line"
       id="tspan175-5"
       style="font-style:normal;font-variant:normal;font-weight:bold;font-stretch:normal;font-size:14px;font-family:Arial;-inkscape-font-specification:'Arial Bold';stroke-width:0.75"
       x="246.27478"
       y="189.91914">+</tspan></text>
  <path
     style="fill:#666666;fill-opacity:1;stroke-width:0.0387787"
     d="m 25.750678,242.74387 -0.108937,-0.1137 0.17853,-0.26855 c 0.207967,-0.31283 1.196317,-1.46048 1.47903,-1.71742 0.106642,-0.0969 0.281145,-0.24456 0.387787,-0.32807 0.287708,-0.2253 1.07115,-0.91807 1.055708,-0.93351 -0.0075,-0.007 -1.41708,0.001 -3.13272,0.019 -1.823978,0.0189 -3.147525,0.018 -3.187208,-0.002 -0.0977,-0.0498 -0.086,-0.21319 0.01942,-0.27045 0.0654,-0.0356 0.879728,-0.055 3.247718,-0.0775 1.73826,-0.0166 3.216615,-0.0402 3.285232,-0.0524 0.116483,-0.0208 0.123203,-0.0305 0.101385,-0.14681 -0.06675,-0.35561 -0.44241,-0.89834 -0.926835,-1.33903 -0.312735,-0.28449 -1.354537,-0.99812 -1.812255,-1.24138 -0.508785,-0.2704 -0.705165,-0.43115 -0.997125,-0.81623 -0.148972,-0.1965 -0.270862,-0.37929 -0.270862,-0.40623 0,-0.0269 0.0234,-0.0809 0.05197,-0.12 0.04883,-0.0668 0.07155,-0.058 0.37809,0.14572 0.179385,0.11921 0.54429,0.39979 0.810892,0.62351 0.339833,0.28517 0.560085,0.43848 0.7368,0.51287 0.712515,0.29993 2.549483,1.11448 2.819243,1.25011 0.169845,0.0854 0.476017,0.20963 0.680385,0.27606 0.438292,0.14249 0.605302,0.24481 0.699472,0.42857 0.127178,0.24815 -0.01597,0.60927 -0.408472,1.03025 -0.249008,0.26709 -0.286838,0.34535 -0.09695,0.20056 0.0693,-0.0529 0.243083,-0.17791 0.386145,-0.2779 0.255225,-0.17839 0.262275,-0.18068 0.37563,-0.12206 0.06352,0.0328 0.12612,0.0769 0.139065,0.0978 0.05903,0.0956 -0.4893,0.56335 -0.91053,0.77674 -0.09949,0.0504 -0.424582,0.33307 -0.756187,0.6575 -0.573383,0.56097 -0.86964,0.79435 -1.28703,1.01392 -0.240863,0.12669 -0.361073,0.10543 -0.361073,-0.0639 0,-0.0747 0.0495,-0.12741 0.222983,-0.23721 0.471502,-0.29844 0.632715,-0.41116 0.614332,-0.42954 -0.0105,-0.0105 -0.120277,0.022 -0.24399,0.0721 -0.173887,0.0704 -0.35565,0.21001 -0.801105,0.61511 -0.88155,0.80169 -1.26282,1.05147 -1.866885,1.22302 -0.127965,0.0364 -0.249247,0.0816 -0.269512,0.10057 -0.06232,0.0583 -0.118718,0.0391 -0.23208,-0.0792 z m 0.889388,-0.53655 c 0.336667,-0.16893 0.624307,-0.38556 1.1271,-0.84886 0.412515,-0.38011 0.484687,-0.46349 0.465922,-0.53825 -0.02505,-0.0998 0.03488,-0.17961 0.570878,-0.76049 0.363645,-0.3941 0.597022,-0.69224 0.541875,-0.69224 -0.01912,0 -0.286785,0.22046 -0.594728,0.48992 -0.307942,0.26946 -0.716955,0.61653 -0.90891,0.77127 -0.191955,0.15474 -0.445162,0.38363 -0.56268,0.50863 -0.272872,0.29026 -0.983977,1.12938 -1.00275,1.18327 -0.0186,0.0534 0.11277,0.0125 0.363293,-0.11325 z m 3.21081,-2.59438 c 0.644887,-0.48485 1.113022,-1.01765 1.113022,-1.26676 0,-0.0888 -0.130237,-0.16158 -0.465345,-0.26014 -0.159967,-0.047 -0.508972,-0.18986 -0.775575,-0.31736 -0.5478,-0.26197 -1.354567,-0.61159 -1.41126,-0.61159 -0.0207,0 0.111593,0.15269 0.293925,0.33931 0.380318,0.38926 0.65253,0.78792 0.75636,1.10772 l 0.07207,0.22188 0.251108,-0.21346 c 0.300255,-0.25524 0.423465,-0.2779 0.49407,-0.0908 0.04298,0.11384 0.0345,0.14623 -0.106013,0.40678 -0.08399,0.1557 -0.25386,0.41808 -0.377505,0.58305 -0.263332,0.35137 -0.29472,0.39886 -0.263632,0.39886 0.01275,0 0.201217,-0.13384 0.4188,-0.29744 z"
     id="path190" />
  <rect
     style="fill:#666666;fill-opacity:1;stroke-width:0.75"
     id="rect193"
     width="33.466087"
     height="11.362183"
     x="2.1318703"
     y="233.10469"
     ry="0.87746358" />
  <text
     xml:space="preserve"
     transform="matrix(0.75,0,0,0.75,-113.27377,-107.4893)"
     id="text194"
     style="font-style:normal;font-variant:normal;font-weight:bold;font-stretch:normal;font-size:18.6667px;font-family:Arial;-inkscape-font-specification:'Arial Bold';writing-mode:lr-tb;direction:ltr;white-space:pre;shape-inside:url(#rect194);display:inline;fill:#000000;fill-opacity:1" />
  <text
     xml:space="preserve"
     transform="matrix(0.75,0,0,0.75,-5.8070294,-149.16882)"
     id="text195"
     style="font-style:normal;font-variant:normal;font-weight:bold;font-stretch:normal;font-size:18.6667px;font-family:Arial;-inkscape-font-specification:'Arial Bold';writing-mode:lr-tb;direction:ltr;white-space:pre;shape-inside:url(#rect195);display:inline;fill:#000000;fill-opacity:1"><tspan
       x="124.59961"
       y="584.82583"
       id="tspan6">Current collector</tspan></text>
  <text
     xml:space="preserve"
     transform="matrix(0.75,0,0,0.75,-55.282076,-210.15254)"
     id="text196"
     style="font-style:normal;font-variant:normal;font-weight:bold;font-stretch:normal;font-size:18.6667px;font-family:Arial;-inkscape-font-specification:'Arial Bold';writing-mode:lr-tb;direction:ltr;white-space:pre;shape-inside:url(#rect196);display:inline;fill:#000000;fill-opacity:1"><tspan
       x="223.46094"
       y="622.26333"
       id="tspan7">Electrode</tspan></text>
  <text
     xml:space="preserve"
     transform="matrix(0.75,0,0,0.75,-27.868047,-244.37362)"
     id="text197"
     style="font-style:normal;font-variant:normal;font-weight:bold;font-stretch:normal;font-size:18.6667px;font-family:Arial;-inkscape-font-specification:'Arial Bold';writing-mode:lr-tb;direction:ltr;white-space:pre;shape-inside:url(#rect197);display:inline;fill:#000000;fill-opacity:1"><tspan
       x="162.62305"
       y="581.90005"
       id="tspan8">Inorganic layer</tspan></text>
  <text
     xml:space="preserve"
     transform="matrix(0.75,0,0,0.75,-33.610712,-289.56299)"
     id="text198"
     style="font-style:normal;font-variant:normal;font-weight:bold;font-stretch:normal;font-size:18.6667px;font-family:Arial;-inkscape-font-specification:'Arial Bold';writing-mode:lr-tb;direction:ltr;white-space:pre;shape-inside:url(#rect198);display:inline;fill:#000000;fill-opacity:1"><tspan
       x="177.24805"
       y="593.59927"
       id="tspan9">Organic layer</tspan></text>
  <text
     xml:space="preserve"
     transform="matrix(0.75,0,0,0.75,0.35776065,-362.39247)"
     id="text199"
     style="font-style:normal;font-variant:normal;font-weight:bold;font-stretch:normal;font-size:18.6667px;font-family:Arial;-inkscape-font-specification:'Arial Bold';writing-mode:lr-tb;direction:ltr;white-space:pre;shape-inside:url(#rect200);display:inline;fill:#000000;fill-opacity:1"><tspan
       x="145.6582"
       y="585.99575"
       id="tspan10">Electrolyte</tspan></text>
</svg>
